<svg xmlns="http://www.w3.org/2000/svg" id="graDesIcon" class="rightNavSVG" viewBox="0 0 216 216"><rect id="graDesemptyContainer" width="216" height="216" fill="none"/><polygon points="124.3 209.3 13.1 209.3 13.1 43.1 87.3 43.1 124.3 80 " style="fill:#FFF;opacity:0.5"/><path d="M122.3 132v75.4H15.1V45h70.7v36.5h36.6v14.3c1.3-1.7 4.7-5.4 6.1-7.1V78c0-1.1-0.4-2.1-1.2-2.9l-35-35c-0.8-0.8-1.8-1.2-2.9-1.2H13.1c-2.3 0-4.1 1.8-4.1 4.1v166.3c0 2.3 1.8 4.1 4.1 4.1h111.2c2.3 0 4.1-1.8 4.1-4.1v-86.7C127 124.9 123.6 130 122.3 132zM91.4 47.1l28.8 28.8H91.4V47.1z"/><g id="graDesStylus"><g><path d="M89.9 176.3c5.6-8.9 28.4-45.3 71-108.8 0 0-1.3-2-3.3-3.4 -1.9-1.4-4.2-2-4.2-2 -46.8 60.5-74.1 93.6-80.7 101.8 1.5 6.4 3.7 8.7 5.8 10.2C80.5 175.6 83.3 177 89.9 176.3z"/></g><path d="M87.1 178.8c-4.3 1.4-8.3-0.4-10.6-2.1 -2.3-1.7-5.3-4.9-5.4-9.4 -2 8.6-2.7 13.6-2.7 13.6s-0.1 3.3 1.7 4.6c1.9 1.3 4.9 0.2 4.9 0.2S79.5 183.4 87.1 178.8z"/><path d="M71.5 188.3c0 0-1.9 0.4-3-0.5 -1.1-0.8-1.4-2.7-1.4-2.7s-1.3 5.3-0.8 5.7S71.5 188.3 71.5 188.3z"/><path d="M166.2 54.4l-1.7-1.2c-3.8 0.5-8.5 6.8-8.5 6.8s2.2 0.9 3.6 1.9c1.4 1 2.9 2.8 2.9 2.8S166.9 58.1 166.2 54.4z"/></g><g><path d="M201.6 131.2l0-0.2 -0.1-0.1c-3.3-8.8-13.6-16.2-17.5-16.2l-12.3 0c-3.9 0-14.2 7.3-17.5 16.2l-0.1 0.1 0 0.2c-0.3 1.4-6.9 34.8-5 46.9 1.9 12 15.2 21.4 26.4 23.3l0.2 0 0.2 0 4.2 0 0.2 0 0.2 0c11.2-1.9 24.5-11.4 26.4-23.4C208.5 166 201.9 132.6 201.6 131.2zM155.2 145.4c1-6.2 3-13.8 3-13.8 3.1-8.3 10.8-12.7 13.5-12.7l4.6 0 0 8.6c0 0-1.8 0.7-1.8 1.5l0 8.3c0 0.8 1.8 1.5 1.8 1.5l0 6.5L155.2 145.4zM179.4 145.4l0-6.5c0 0 1.8-0.7 1.8-1.5l0-8.3c0-0.8-1.8-1.5-1.8-1.5l0-8.6 4.6 0c2.7 0 10.4 4.4 13.5 12.7 0 0 2 7.5 3 13.8L179.4 145.4z"/></g></svg>
