<svg xmlns="http://www.w3.org/2000/svg" id="softwareIcons" class="referenceSVG" viewBox="0 0 1200 600">
	<!-- <style type="text/css">
		.fillWh{fill:#FFFFFF;}
		.fillBlk{fill:#000000;}
		#sass{fill:#C66395;}
		#wordpress{fill:#00AADC;}
		.phpRadGrad{fill:url(#phpRadGrad);}
		.phpPurple{fill:#777BB3;}
		#jquery{fill:#78CFF5;}
		#javascript{fill:#F7DF1E;}
		#css{fill:#0C70B3;}
		#html{fill:#EA642B;}
		#photoshop{fill:#08AFDE;}
		#illustrator{fill:#E47002;}
		#indesign{fill:#FF408C;}
		#acrobat{fill:#E01408;}
		.cspBg{fill:#E7E8E8;}
		.csp{fill:#4C4C4C;}
		#sketchup{fill:#E72B2D;}
		#word{fill:#295495;}
		#excel{fill:#00823F;}
		#powerpoint{fill:#CA4223;}
	</style> -->
	<defs>
		<radialGradient id="phpRadGrad" cx="404.9" cy="-5.7" r="0.3" gradientTransform="matrix(453.8224 0 0 -453.8224 -182911.1406 -2337.4392)" gradientUnits="userSpaceOnUse">
			<stop offset="0" stop-color="#AEB2D5"/>
			<stop offset="0.3" stop-color="#AEB2D5"/>
			<stop offset="0.75" stop-color="#484C89"/>
			<stop offset="1" stop-color="#484C89"/>
		</radialGradient>
	<!-- </defs> -->
		<symbol id="sassSymbol" viewBox="200 200 200 200">
			<g id="sass">
				<path d="M296.8 232.5c3.4 0.7 6.9 1.2 10.2 2.2 5.6 1.7 10.7 4.5 13.8 9.8 3.8 6.5 3.4 13.4 0.7 20.1 -5.2 13.1-14.9 21.5-28 26.2 -9 3.2-18.2 4.6-27.8 3.3 -4.8-0.7-8.9-2.7-12.1-6.3 -1-1.1-1.6-2.6-2.2-4 -0.2-0.4 0.2-1.1 0.5-1.4 0.2-0.2 1 0 1.3 0.3 6.2 6.4 14 6.4 22 5.1 12.1-2 22.7-7 31.1-16.3 3.3-3.7 6-7.8 6.9-12.8 1.3-6.9-1.4-11.4-8.2-13.6 -7.2-2.4-14.6-2.2-21.9-0.8 -18.4 3.6-34.5 12.1-48.6 24.3 -2.8 2.4-5.4 5.4-7.4 8.6 -6.1 9.6-4.8 18.6 3.7 26.5 4.2 3.8 8.8 7.2 13.2 10.8 2.3 1.9 4.4 3.9 6.7 5.8 0.5 0.4 1.6 0.7 2.1 0.4 5.5-2.9 10.9-5.9 16.3-8.9 0.5-0.3 0.9-0.9 1.3-1.3 2.9-3.5 6.2-6.5 10.3-8.5 2.7-1.2 5.5-2.1 8.2-0.2 2.6 1.8 2.5 4.8 2.5 7.7 0 0.8-0.1 1.5-0.2 2.4 0.7-0.2 1.2-0.5 1.7-0.5 2.9-0.5 4.7 1.3 4 4.2 -1.4 5.6-2.8 11.2-4.1 16.8 -0.4 1.6-0.3 3.3-0.4 4.9 0.2 0.1 0.4 0.1 0.5 0.2 0.3-0.4 0.8-0.9 1-1.3 5.3-11.7 10.6-23.4 15.9-35.1 0.4-0.9 0.7-2 0.8-3 0.2-2.4 1.7-3.4 3.9-3.6 1.8-0.1 3.7-0.3 5.4-0.1 2.2 0.2 2.8 1.3 2 3.3 -1.7 4.4-2.3 8.8-1.2 13.4 0.5 1.9 1.4 3.8 2.3 6.2 4.3-8.2 9.5-15.1 11.5-23.6 0.4-1.5 0.3-3.6 2.4-4.1 2.9-0.8 5.9-1.5 8.8 0 0.5 0.3 0.8 1.7 0.5 2.5 -1.2 4-2.6 8-1.5 12.2 0.8 3.2 2.1 6.3 3.3 9.6 2.9-0.9 5.2-1.9 7.6-2.5 7-1.8 14.1-1.8 20.9 0.9 6.9 2.7 11.5 7.6 13.4 14.9 0 1.7 0 3.4 0 5.1 -1.3 3.7-3.4 6.8-7.1 8.4 -0.8 0.4-1.9 0.2-2.9 0.3 0.6-0.7 1-1.5 1.7-2 4.4-3.1 5.6-7.4 3.3-12.4 -1.5-3.2-3.9-5.5-7-7 -7.6-3.7-15.5-4-23.6-2.2 -1.3 0.3-2.5 0.8-3.8 1.2 0.3 0.9 0.6 1.6 0.7 2.3 0.8 3 1.3 6-0.2 8.8 -3.2 6.1-8.6 9.3-15.1 10.6 -3.3 0.7-5.5-1.4-5-4.7 0.3-2.6 1.1-5.5 2.5-7.7 2.1-3.4 4.9-6.4 7.4-9.5 -1.5-4.3-3-8.8-4.6-13.4 -0.2 0.3-0.5 0.7-0.7 1.1 -2.3 4-4.3 8.2-7 12 -2.1 2.9-2.6 5.5-1.4 9 1.8 5.3 0.4 10.2-3.9 13.9 -3.7 3.1-8 4.8-12.9 5.2 -2.1 0.1-4.5 0.6-5.6-1.7 -1.1-2.2 0.6-3.9 1.8-5.4 3.4-4.2 6.8-8.4 10.1-12.6 0.4-0.6 0.5-1.8 0.2-2.6 -1.3-4-2.8-7.9-4.2-11.9 -0.2-0.5-0.3-0.9-0.6-1.8 -0.5 1.2-0.9 2.1-1.3 2.9 -4.7 9.7-9.3 19.4-14.1 28.9 -1.2 2.3-3.3 4.4-5.3 6.1 -1.9 1.6-4.5 0.8-5.7-1.4 -0.5-0.9-0.9-1.9-1-3 -0.3-2.6-0.3-5.3-0.5-7.9 -0.2 0.5-0.5 1.1-0.7 1.7 -1.8 3.6-3.4 7.4-5.6 10.8 -2.7 4.2-8 4.1-10.8-0.1 -3.1-4.6-4.4-9.7-4-15.2 0.3-4 1.1-8 1.7-12.1 -3.1 1.8-6.2 3.6-9.3 5.4 0.1 0.5 0.1 0.7 0.2 0.9 5 13.3 0.3 27.9-11.5 35.9 -3.6 2.4-7.7 3.7-11.8 4.7 -2.2 0-4.5 0-6.7 0 -0.2-0.1-0.3-0.3-0.5-0.3 -5.3-0.4-7.8-3.9-8.8-8.5 -1.5-6.8 0.8-12.6 5.4-17.5 4.4-4.7 9.6-8.2 15.1-11.4 2.7-1.6 5.4-3 8.4-4.7 -0.7-0.6-1.2-1.1-1.8-1.5 -4.1-2.9-8.3-5.8-12.4-8.8 -9-6.6-17.9-13.3-21-24.9 0-1.7 0-3.4 0-5.1 0.1-0.2 0.3-0.3 0.3-0.5 1.2-6.5 4.5-12 8.7-16.8 14.9-17 34.3-26.6 55.5-32.8 3.7-1.1 7.5-1.5 11.3-2.2C289.5 232.5 293.2 232.5 296.8 232.5zM249.5 328.9c-6.9 4.2-13.9 8.1-18.8 14.5 -1.7 2.2-2.9 5.2-3.5 8 -1 4.6 1.8 6.9 6.4 5.8 6.8-1.7 11.4-6 14.6-12.1C250.7 340 251.2 334.7 249.5 328.9zM271.8 332.7c0.4 2 0.7 4.1 1.3 6.1 0.4 1.5 1.4 1.7 2.4 0.4 0.4-0.5 0.8-1 1-1.6 1.7-3.8 3.5-7.6 4.9-11.6 1.9-5.1 3.4-10.4 5-15.6 0.2-0.7 0-1.9-0.4-2.2 -0.5-0.3-1.7-0.2-2.3 0.2 -1.5 1-3.1 2-4.2 3.4C274.9 318 272.3 324.9 271.8 332.7zM336.9 334.2c5.7-1.1 9.1-7.2 6.9-12.2C340.3 325.4 337.8 329.2 336.9 334.2zM311.5 340.3c4.2-0.7 9-6.3 8.2-9.6C317.1 333.8 314.4 337 311.5 340.3z"/>
			</g>
		</symbol>
		<symbol id="githubSymbol" viewBox="0 200 200 200">
			<g id="github" class="fillBlk">
				<path d="M116.6 342c3.9-0.8 7.6-1.3 11.1-2.2 10.7-2.7 19.8-8 24.7-18.4 5.2-11 6.4-22.5 3.4-34.3 -1.2-4.6-3.5-8.6-6.6-12.2 -0.8-1-1-1.8-0.6-3 2.1-7 1.5-14-1-20.8 -0.3-0.7-1.4-1.4-2.2-1.4 -4.3-0.1-8.3 1.3-12.1 3.2 -3.3 1.6-6.5 3.6-9.7 5.4 -0.7 0.4-1.8 0.6-2.5 0.4 -14.1-3.5-28.2-3.5-42.3 0 -0.9 0.2-2.1-0.1-2.9-0.6 -5.9-3.6-11.8-7-18.7-8.1 -0.2 0-0.4-0.1-0.6-0.1 -3.6-0.5-4-0.3-5 3.1 -2 6.5-2.3 13.1-0.3 19.7 0.2 0.5 0 1.4-0.4 1.9 -8.1 9.3-9.6 20.4-7.9 32.1 0.6 4.1 1.6 8.3 3.1 12.2 4.6 11.8 13.9 18.1 25.7 21.2 3.6 0.9 7.4 1.5 11.3 2.3 -3 3.2-4.5 6.9-5.3 11.1 -0.1 0.5-0.8 1-1.3 1.2 -9.6 3.7-18.9 2.1-24.8-7.7 -2.8-4.6-6.6-8.1-12.1-9.2 -1.4-0.3-2.9-0.2-4.2 0 -1.9 0.4-2.2 1.4-0.9 2.9 0.6 0.7 1.3 1.3 2.1 1.8 4.9 2.9 8 7.3 10.1 12.5 3.3 8.2 9.7 11.9 18.1 12.6 4.1 0.3 8.4-0.2 12.8-0.4 0 5.5 0.2 11.3-0.1 17.1 -0.1 3-3.2 4.3-6.6 3.2 -7.6-2.5-14.8-6-21.4-10.6 -27.1-19.2-40.8-45.6-39.3-78.9 1.8-41.5 32.1-75.5 72.8-83.4 46.7-9 92.2 19.6 104.2 65.7 11.8 44.9-13.8 92.5-57.8 107.2 -4.5 1.5-7-0.4-7-5.2 0-7.5 0-15 0.1-22.6C122.4 353 121.3 347 116.6 342z"/>
				<path d="M68.2 357.2c0.8 0.7 1.3 1.2 1.9 1.7 -0.7 0.5-1.3 1.2-2.1 1.3 -0.5 0.1-1.1-0.8-1.7-1.2C66.9 358.5 67.5 357.9 68.2 357.2z"/>
				<path d="M57 354.4c-1 0.7-1.6 1.3-1.8 1.2 -0.8-0.4-1.5-1.1-2-1.8 -0.1-0.1 0.8-1.2 0.9-1.2C54.9 353.1 55.7 353.6 57 354.4z"/>
				<path d="M60.9 356.1c0.7 0.8 1.3 1.5 1.8 2.1 -0.6 0.3-1.3 1.1-1.8 0.9 -0.7-0.2-1.2-1-1.8-1.6C59.6 357.1 60.1 356.7 60.9 356.1z"/>
				<path d="M75.3 356.3c0.7 0.8 1.2 1.3 1.7 1.8 -0.7 0.5-1.4 1.2-2.2 1.3 -0.4 0.1-1-0.7-1.5-1.1C73.8 357.7 74.4 357.1 75.3 356.3z"/>
				<path d="M50.5 351.3c-0.8-1.2-1.3-1.8-1.6-2.6 -0.1-0.2 0.7-0.8 1-1.1 0.5 0.7 1.2 1.3 1.6 2C51.6 349.7 51.1 350.3 50.5 351.3z"/>
				<path d="M46.2 342.3c0.7 1 1.2 1.6 1.6 2.3 0 0.1-0.8 0.8-0.9 0.8 -0.6-0.4-1.1-0.9-1.5-1.5C45.3 343.7 45.8 343.2 46.2 342.3z"/>
			</g>
		</symbol>
		<symbol id="phpSymbol" viewBox="1000 0 200 200">
			<g id="php" transform="matrix(1.25 0 0 -1.25 -4.4 394.29875)">
				<path id="path3462" class="phpRadGrad" d="M814.4 235.4c0-20.1 30.9-36.4 69.1-36.4l0 0c38.2 0 69.1 16.3 69.1 36.4l0 0c0 20.1-30.9 36.4-69.1 36.4l0 0C845.3 271.8 814.4 255.5 814.4 235.4"/>
				<path id="path3474" class="phpPurple" d="M883.5 201.8c36.7 0 66.4 15.1 66.4 33.7 0 18.6-29.7 33.7-66.4 33.7s-66.4-15.1-66.4-33.7C817.1 216.9 846.8 201.8 883.5 201.8"/>
				<path id="path3486" d="M851.9 231.3c3 0 5.3 0.6 6.7 1.7 1.4 1.1 2.4 3 2.9 5.6 0.5 2.5 0.3 4.2-0.5 5.1 -0.9 0.9-2.7 1.4-5.5 1.4H850.7L848 231.3H851.9zM836.2 214.3c-0.2 0-0.4 0.1-0.6 0.3 -0.1 0.2-0.2 0.4-0.2 0.6l7.1 36.4c0.1 0.4 0.4 0.6 0.7 0.6h15.3c4.8 0 8.4-1.3 10.6-3.9 2.3-2.6 3-6.2 2.1-10.7 -0.4-1.8-1-3.6-1.8-5.1 -0.9-1.5-2-3-3.4-4.2 -1.7-1.5-3.5-2.7-5.6-3.3 -2-0.7-4.6-1-7.6-1h-6.2l-1.8-9.1c-0.1-0.4-0.4-0.6-0.7-0.6H836.2z"/>
				<path id="path3490" class="fillWh" d="M851.3 244.3h4.2c3.4 0 4.5-0.7 4.9-1.2 0.7-0.7 0.8-2.3 0.4-4.4 -0.5-2.4-1.4-4.2-2.6-5.1 -1.3-1-3.4-1.5-6.2-1.5h-3L851.3 244.3zM858.5 253H843.2c-0.7 0-1.3-0.5-1.5-1.2l-7.1-36.4c-0.1-0.4 0-0.9 0.3-1.2 0.3-0.3 0.7-0.5 1.2-0.5h7.9c0.7 0 1.3 0.5 1.5 1.2L847.2 223.3h5.6c3.1 0 5.8 0.3 7.9 1 2.1 0.7 4.1 1.9 5.8 3.5 1.4 1.3 2.6 2.8 3.5 4.4 0.9 1.6 1.5 3.4 1.9 5.3 0.9 4.8 0.2 8.6-2.2 11.4C867.3 251.6 863.5 253 858.5 253M847.1 230.5h4.8c3.2 0 5.6 0.6 7.2 1.8 1.6 1.2 2.6 3.2 3.2 6 0.5 2.7 0.3 4.6-0.7 5.7 -1 1.1-3 1.7-6 1.7h-5.4L847.1 230.5M858.5 251.5c4.6 0 7.9-1.2 10-3.6 2.1-2.4 2.7-5.8 1.9-10.1 -0.3-1.8-0.9-3.4-1.8-4.9 -0.8-1.5-1.9-2.8-3.2-4 -1.6-1.5-3.3-2.5-5.3-3.2 -1.9-0.6-4.4-0.9-7.4-0.9h-6.8l-1.9-9.7H836.2l7.1 36.4H858.5"/>
				<path id="path3494" d="M889.4 224c-0.2 0-0.4 0.1-0.6 0.3 -0.1 0.2-0.2 0.4-0.2 0.6l3.1 16.1c0.3 1.5 0.2 2.6-0.2 3.1 -0.3 0.3-1.1 0.8-3.4 0.8h-5.7l-3.9-20.3c-0.1-0.4-0.4-0.6-0.7-0.6h-7.9c-0.2 0-0.4 0.1-0.6 0.3 -0.1 0.2-0.2 0.4-0.2 0.6l7.1 36.4c0.1 0.4 0.4 0.6 0.7 0.6h7.9c0.2 0 0.4-0.1 0.6-0.3 0.1-0.2 0.2-0.4 0.2-0.6l-1.7-8.8h6.1c4.7 0 7.8-0.8 9.6-2.5 1.9-1.7 2.5-4.5 1.7-8.2l-3.3-17c-0.1-0.4-0.4-0.6-0.7-0.6H889.4z"/>
				<path id="path3498" class="fillWh" d="M885 262.7h-7.9c-0.7 0-1.3-0.5-1.5-1.2L868.5 225.1c-0.1-0.4 0-0.9 0.3-1.2 0.3-0.3 0.7-0.5 1.2-0.5h7.9c0.7 0 1.3 0.5 1.5 1.2l3.8 19.7h5.1c2.3 0 2.8-0.5 2.9-0.5 0.1-0.2 0.3-0.9 0-2.4L888 225.1c-0.1-0.4 0-0.9 0.3-1.2 0.3-0.3 0.7-0.5 1.2-0.5h8c0.7 0 1.3 0.5 1.5 1.2l3.3 17c0.8 4 0.1 7-2 8.9 -2 1.8-5.3 2.7-10.1 2.7h-5.2l1.5 7.9c0.1 0.4 0 0.9-0.3 1.2C885.8 262.5 885.4 262.7 885 262.7M885 261.2l-1.9-9.7h7c4.4 0 7.5-0.8 9.1-2.3 1.7-1.5 2.2-4 1.5-7.5l-3.3-17h-8l3.1 16.1c0.4 1.8 0.2 3.1-0.4 3.8 -0.6 0.7-1.9 1-4 1h-6.3l-4.1-20.9h-7.9l7.1 36.4H885"/>
				<path id="path3502" d="M913.9 231.3c3 0 5.3 0.6 6.7 1.7 1.4 1.1 2.4 3 2.9 5.6 0.5 2.5 0.3 4.2-0.5 5.1 -0.9 0.9-2.7 1.4-5.5 1.4h-4.8L909.9 231.3H913.9zM898.1 214.3c-0.2 0-0.4 0.1-0.6 0.3 -0.1 0.2-0.2 0.4-0.2 0.6l7.1 36.4c0.1 0.4 0.4 0.6 0.7 0.6h15.3c4.8 0 8.4-1.3 10.6-3.9 2.3-2.6 3-6.2 2.1-10.7 -0.4-1.8-1-3.6-1.8-5.1 -0.9-1.5-2-3-3.4-4.2 -1.7-1.5-3.5-2.7-5.6-3.3 -2-0.7-4.6-1-7.6-1H908.5l-1.8-9.1c-0.1-0.4-0.4-0.6-0.7-0.6H898.1z"/>
				<path id="path3506" class="fillWh" d="M913.2 244.3h4.2c3.4 0 4.5-0.7 4.9-1.2 0.7-0.7 0.8-2.3 0.4-4.4 -0.5-2.4-1.4-4.2-2.6-5.1 -1.3-1-3.4-1.5-6.2-1.5h-3L913.2 244.3zM920.4 253h-15.3c-0.7 0-1.3-0.5-1.5-1.2l-7.1-36.4c-0.1-0.4 0-0.9 0.3-1.2 0.3-0.3 0.7-0.5 1.2-0.5h7.9c0.7 0 1.3 0.5 1.5 1.2l1.6 8.5h5.6c3.1 0 5.8 0.3 7.9 1 2.1 0.7 4.1 1.9 5.8 3.5 1.4 1.3 2.6 2.8 3.5 4.4 0.9 1.6 1.5 3.4 1.9 5.3 0.9 4.8 0.2 8.6-2.2 11.4C929.2 251.6 925.5 253 920.4 253M909 230.5h4.8c3.2 0 5.6 0.6 7.2 1.8 1.6 1.2 2.6 3.2 3.2 6 0.5 2.7 0.3 4.6-0.7 5.7 -1 1.1-3 1.7-6 1.7H912L909 230.5M920.4 251.5c4.6 0 7.9-1.2 10-3.6 2.1-2.4 2.7-5.8 1.9-10.1 -0.3-1.8-0.9-3.4-1.8-4.9 -0.8-1.5-1.9-2.8-3.2-4 -1.6-1.5-3.3-2.5-5.3-3.2 -1.9-0.6-4.4-0.9-7.4-0.9h-6.8l-1.9-9.7h-7.9l7.1 36.4H920.4"/>
			</g>
		</symbol>
		<symbol id="wordpressSymbol" viewBox="800 0 200 200">
			<g id="wordpress">
				<path d="M900 10c49.6 0 90 40.3 90 90 0 49.7-40.5 90.1-90.2 90 -49.5-0.1-89.8-40.5-89.8-90C810 50.3 850.5 9.9 900 10zM814.1 100c0 47 38.1 85.4 85 85.9 47.9 0.4 86.8-38.4 86.7-85.9 0-47.3-38.3-85.3-84.7-85.9C852.9 13.5 814.1 52.7 814.1 100z"/>
				<path d="M910.6 63.8c1-0.1 1.8-0.1 2.7-0.2 2.1-0.2 4.1-0.3 6.2-0.5 1.8-0.2 3.1-1.7 2.9-3.5 -0.2-2-1.6-3.1-3.5-3 -6.6 0.6-13.3 1-19.9 1.1 -3.5 0-7.1-0.2-10.6-0.4 -3.4-0.2-6.8-0.5-10.2-0.7 -1.8-0.1-3.2 1.2-3.3 3.1 -0.1 1.8 1.1 3.2 2.9 3.4 2.5 0.2 5 0.4 7.5 0.6 0.4 0 0.5 0.2 0.7 0.5 3.7 10.1 7.4 20.2 11.2 30.3 0.6 1.6 0.6 2.9 0 4.4 -5.4 15.8-10.7 31.7-16 47.6 -0.1 0.2-0.1 0.3-0.2 0.7 -9.4-27.9-18.8-55.6-28.2-83.5 0.5 0 1 0 1.5-0.1 2.5-0.2 4.9-0.4 7.4-0.6 1.8-0.2 3-1.8 2.9-3.5 -0.2-1.9-1.6-3.1-3.5-3 -6.7 0.6-13.3 1-20 1.1 -1.8 0-3.5-0.1-5.3-0.3 11.5-17 27.1-28.1 47.2-32.7 26.9-6.1 52.6 2.7 69.3 18.2 -0.8 0-1.7 0-2.5 0.1 -4.5 0.6-7.7 3-9.9 6.9 -2 3.7-2.1 7.6-0.9 11.6 1 3.4 2.7 6.4 4.5 9.3 2 3.3 4.1 6.6 5.6 10.3 2.1 5 3.1 10.2 3 15.6 -0.1 5.6-1.4 10.9-3.1 16.2 -0.9 2.9-2.1 5.7-3 8.6 -2.4 8-4.8 16.1-7.2 24.2 -0.1 0.2-0.1 0.3-0.2 0.7C929.2 118.9 920 91.4 910.6 63.8z"/>
				<path d="M925.5 172.7c-15.5 5.5-31.2 6-47.2 1.3 7.6-22.4 15.3-44.7 22.9-67 0 0 0.1 0 0.1 0C909.4 128.8 917.4 150.7 925.5 172.7z"/>
				<path d="M829.6 68.7c12.3 33.5 24.5 67 36.8 100.5 0 0-0.1 0.1-0.1 0.1 -16.1-8.1-28.4-20.2-36.1-36.6 -9.8-21.2-9.7-42.6-0.8-64C829.4 68.7 829.5 68.7 829.6 68.7z"/>
				<path d="M938.8 166.5c0.9-2.5 1.7-5 2.6-7.4 4.6-13.2 9.1-26.3 13.7-39.5 2.4-7 4.8-13.9 7.3-20.9 1.4-3.9 2.9-7.8 3.9-11.9 1.5-5.9 2.2-11.9 2-18.1 -0.1-1.9-0.3-3.7-0.5-5.5C985.9 94.4 978.9 142.9 938.8 166.5z"/>
			</g>
		</symbol>
		<symbol id="jquerySymbol" viewBox="600 0 200 200">
			<g id="jquery">
				<path d="M785.6 138.4c-2.4 4-4.6 8.1-7.3 11.9 -13.5 19-32 30.1-55.1 33.5 -11.6 1.7-23.3 1.4-34.8-0.8 -12.3-2.3-23.4-7.5-33.6-14.4 -21-14.1-35.5-33-41.9-57.6 -4.3-16.4-3.9-32.5 3.4-48.1 1.9-4.1 4.5-7.9 7.1-11.5 3-4.2 6.4-8.2 9.9-12.1 -0.6 1.4-1.2 2.7-1.8 4.1 -6.5 16.4-6.6 33-1.6 49.6 6.8 22.7 20.9 40.1 40.5 53.2 17.6 11.8 37.1 17.5 58.3 16.9 16.1-0.5 31.3-4.3 44.4-14 4.4-3.2 8.2-7.2 12.3-10.8C785.4 138.4 785.5 138.4 785.6 138.4z"/>
				<path d="M790 93.5c-1.3 2.6-2.5 5.2-3.9 7.6 -9.4 15.6-23.4 24.6-41.5 27.4 -9.3 1.4-18.6 1.2-27.7-0.6 -6.6-1.3-12.8-4.1-18.6-7.6 -16.8-10-28.8-23.9-33.8-42.9 -4.3-16.2-2-31.5 8.3-45.2 2-2.7 3.9-5.4 5.9-8.2 0.1-0.1 0.2-0.2 0.4-0.4 -0.1 0.4-0.1 0.6-0.2 0.8 -7.4 16-6.8 32.1 0.8 47.5 12 24.3 31.9 38.3 59 41.7 15.2 1.9 29.4-1.4 41.6-10.9C783.7 100 786.6 96.7 790 93.5z"/>
				<path d="M716.4 15c-0.8 3-1.8 6-2.2 9 -1.3 9.8 1.6 18.6 7.2 26.5 8.3 12 19.9 18.5 34.4 20.2 4.6 0.5 9.2 0.5 13.8-0.6 5.2-1.2 7.2-2.4 14.4-8.5 -0.4 0.8-0.7 1.3-1 1.8 -6.8 11.1-16.8 16.6-29.9 17.2 -22.5 0.9-41-15.9-45.2-33.2 -2.5-10.2-0.8-19.8 5.5-28.4C714.4 17.7 715.4 16.3 716.4 15z"/>
			</g>
		</symbol>
		<symbol id="javascriptSymbol" viewBox="400 0 200 200">
			<g id="javascript">
				<polygon points="410 10 590 10 590 190 410 190 "/>
				<path class="fillBlk" d="M457.3 160.4l13.8-8.3c2.7 4.7 5.1 8.7 10.9 8.7 5.6 0 9.1-2.2 9.1-10.6V92.6H508v57.8c0 17.5-10.3 25.5-25.3 25.5C469.2 175.9 461.3 168.9 457.3 160.4M517.1 158.6l13.8-8c3.6 5.9 8.3 10.3 16.7 10.3 7 0 11.5-3.5 11.5-8.3 0-5.8-4.6-7.9-12.3-11.2l-4.2-1.8c-12.2-5.2-20.3-11.7-20.3-25.5 0-12.7 9.7-22.4 24.8-22.4 10.8 0 18.5 3.7 24 13.5l-13.2 8.5c-2.9-5.2-6-7.2-10.9-7.2 -5 0-8.1 3.1-8.1 7.2 0 5.1 3.1 7.1 10.4 10.3l4.2 1.8c14.4 6.2 22.5 12.4 22.5 26.6 0 15.2-12 23.6-28 23.6C532.2 175.9 522.1 168.4 517.1 158.6"/>
			</g>
		</symbol>
		<!-- <symbol id="cssSymbol" viewBox="200 0 200 200"> -->
			<!-- <g id="css">
				<path d="M364.5 45.5c0 0-11.8 127.5-11.9 129.3 -0.1 1-0.4 1.4-1.4 1.7 -16.7 4.5-33.4 9-50.2 13.4 -0.7 0.2-1.6 0.1-2.4-0.1 -16.5-4.4-33-8.8-49.5-13.2 -1.2-0.3-1.7-0.9-1.8-2.1 -1.1-12-11.8-129-11.8-129H364.5zM264.9 128.4l1.8 23.5c0.1 1.1 0.8 1.3 1.6 1.5 10.2 3 20.3 6 30.5 9 0.6 0.2 1.4 0.3 2 0.1 10.4-3 20.7-6 31-9 0.5-0.1 1-0.9 1.1-1.4 0.3-2.2 4.2-47.8 4.2-47.8h-36.4l36.2-15.8c1.1-0.5 1.7-0.9 1.8-2.2 0.2-3.2 1.3-14.1 1.3-14.1h-81l2 15.7h40.2l-37.3 15.8c0 0-1.6 1.1-1.5 2.3 0.2 1.5 1.2 13.9 1.2 13.9h55.7l-1.2 19.6c0 0.5-0.8 1.2-1.4 1.4 -5.3 1.5-10.5 3-15.8 4.4 -0.7 0.2-1.5 0.2-2.2 0 -4.9-1.2-9.7-2.5-14.6-3.6 -1.5-0.3-2.2-1-2.1-2.6l-0.9-10.7H264.9z"/>
				<polygon points="281.9 10 281.9 18 270.9 18 270.9 26 281.9 26 281.9 34 261.9 34 261.9 10 "/>
				<polygon points="290 10 310 10 310 18 302 18 310 26 310 34 290 34 290 26 298 26 290 18 "/>
				<polygon points="317.1 10 337.1 10 337.1 18 329.1 18 337.1 26 337.1 34 317.1 34 317.1 26 325.1 26 317.1 18 "/>
			</g> -->
		<!-- </symbol>
		<symbol id="htmlSymbol" viewBox="0 0 200 200"> -->
			<!-- <g id="html">
				<path d="M99.5 190c-3.2-0.9-36.7-10.3-50.3-14.1 -1-0.3-1.3-0.7-1.4-1.7 -0.7-8.4-11.4-128.7-11.4-128.7h127c0 0-11.3 127.5-11.4 128 -0.2 2.1-0.2 2.1-2.3 2.7 -16.2 4.5-49.3 13.8-49.6 13.9C100 190 99.8 190 99.5 190zM77.5 88h60.9l1.4-15.9H60.2c0 0 3.4 38.2 4.1 46.6 0.1 1.6 0.1 1.6 1.7 1.6 17.3 0 53.5 0 53.5 0l-1.7 20c-0.1 0.8-0.5 0.9-1 1 -5.3 1.4-10.6 2.9-16 4.3 -0.5 0.1-1.2 0.1-1.7 0 -5.3-1.4-10.6-2.9-15.9-4.2 -0.8-0.2-1.1-0.6-1.1-1.3 -0.1-2.1-1-11.6-1-11.6H65.2c0 0 1.4 16.5 2 24.2 0.1 0.7 0.4 0.8 0.9 1 10.4 2.9 20.7 5.8 31.1 8.6 0.4 0.1 0.9 0.1 1.2 0 10.4-2.9 20.7-5.8 31.1-8.6 0.7-0.2 1-0.5 1-1.2l4.2-48.1h-58L77.5 88z"/>
				<polygon points="128.5 10 128.5 35 120.5 35 120.5 22.6 114.8 31 109.1 22.6 109.1 35 101.2 35 101.2 10 109.8 10 114.8 18.6 119.9 10 "/>
				<polygon points="71.8 10 71.8 35 63.8 35 63.8 26.2 56.4 26.2 56.4 35 48.4 35 48.4 10 56.3 10 56.3 17.9 63.8 17.9 63.8 10 "/>
				<polygon points="97.7 10 97.7 18 90.6 18 90.6 35 82.6 35 82.6 18.1 75.5 18.1 75.5 10 "/>
				<polygon points="140.6 10 140.6 26.2 151.8 26.2 151.8 35 132.5 35 132.5 10 "/>
			</g>
		</symbol> -->
		<symbol id="htmlcssSymbol" viewBox="0 0 200 200">
			<g id="css">
				<path d="M190,78s-8.2,90-8.3,91.2a1.2,1.2,0,0,1-1,1.2l-35,9.5a3.3,3.3,0,0,1-1.7-.1l-34.5-9.3a1.3,1.3,0,0,1-1.2-1.5c-.8-8.5-8.3-91-8.3-91Zm-69.5,58.5,1.3,16.6c0,.8.5.9,1.1,1.1l21.2,6.3a3.8,3.8,0,0,0,1.5.1l21.6-6.4a1.6,1.6,0,0,0,.8-1c.2-1.6,2.9-33.7,2.9-33.7H145.5l25.3-11.2a1.6,1.6,0,0,0,1.2-1.6c.1-2.2.9-9.9.9-9.9H116.4l1.4,11.1h28l-26,11.1s-1.1.7-1,1.6.9,9.8.9,9.8h38.8l-.8,13.9a2.4,2.4,0,0,1-1,1l-11.1,3.1h-1.5l-10.2-2.5c-1-.3-1.5-.7-1.5-1.8l-.6-7.6Z"/>
				<polygon points="132.4 53 132.4 58.6 124.7 58.6 124.7 64.3 132.4 64.3 132.4 69.9 118.4 69.9 118.4 53 132.4 53"/>
				<polygon points="138 53 152 53 152 58.6 146.4 58.6 152 64.3 152 69.9 138 69.9 138 64.3 143.6 64.3 138 58.6 138 53"/>
				<polygon points="156.9 53 170.9 53 170.9 58.6 165.3 58.6 170.9 64.3 170.9 69.9 156.9 69.9 156.9 64.3 162.5 64.3 156.9 58.6 156.9 53"/>
			</g>
			<g id="html">
				<path d="M54.7,147l-35.6-9.9c-.7-.2-1-.5-1-1.2C17.6,130,10,45,10,45h90s-8,90-8.1,90.3-.1,1.5-1.6,1.9L55.2,147ZM39.1,75H82.2l1-11.2H26.8s2.4,27,2.9,32.9c.1,1.1.1,1.1,1.2,1.1H68.8l-1.2,14.1c0,.5-.3.6-.7.7l-11.4,3.1a2.6,2.6,0,0,1-1.2-.1l-11.2-3a.8.8,0,0,1-.8-.9c-.1-1.5-.7-8.2-.7-8.2H30.4s1,11.7,1.4,17.1c.1.5.3.6.7.7l22,6.1h.9l22-6.1c.5-.1.7-.3.7-.8l3.1-34H40.1Z"/>
				<polygon points="75.2 20 75.2 37.7 69.5 37.7 69.5 28.9 65.5 34.8 61.5 28.9 61.5 37.7 55.8 37.7 55.8 20 62 20 65.5 26.1 69.1 20 75.2 20"/>
				<polygon points="35 20 35 37.7 29.3 37.7 29.3 31.5 24.1 31.5 24.1 37.7 18.5 37.7 18.4 20 24.1 20 24.1 25.6 29.4 25.6 29.4 20 35 20"/>
				<polygon points="53.3 20 53.3 25.7 48.3 25.7 48.3 37.7 42.6 37.7 42.6 25.7 37.6 25.7 37.6 20 53.3 20"/>
				<polygon points="83.8 20 83.8 31.4 91.7 31.4 91.7 37.7 78 37.7 78 20 83.8 20"/>
			</g>
		</symbol>
		<symbol id="mailchimpSymbol" viewBox="400 200 200 200">
			<g id="mailchimp" class="fillBlk">
				<path d="M506.3 219.3c8.6-4.8 17-8.9 26.8-9.2 14.1-0.5 21.8 7.9 18.7 21.8 -1.6 7.4-5 14.5-7.9 22.5 1.9 2.6 4.6 6 7.1 9.6 4 5.6 4.3 12.3 4.6 18.8 0.2 4.8 1.6 7.6 6.3 9.7 4.9 2.2 9.4 5.5 13.8 8.7 3.7 2.7 4.4 7.4 2.1 11.5 -1.8 3.1-0.3 8.4 2.7 10.1 4.6 2.6 6.4 6.1 4.6 11.1 -4.1 11.3-8.7 22.4-16.4 32 -20.8 26.2-55.1 29.4-81 17.7 -14.3-6.4-25.5-16.6-34.2-29.5 -1.3-2-2.6-3.1-5.3-3.4 -14.9-1.6-24.8-15.2-22-30.2 0.4-2.2 1-3.9-1.5-5.8 -11.1-8.2-13.1-14.7-9-28.2 4.9-16.4 14.3-30.1 25.1-43 9.4-11.1 19.8-21.1 32.7-28 2.9-1.6 6.1-2.8 9.2-3.8 6.8-2 13.2-1.3 18.7 3.8C503.1 216.8 504.6 217.9 506.3 219.3zM571.3 317.6c-4.9 3.3-8.9 6.3-13.3 8.8 -10.3 5.9-21.5 8.5-33.4 8.8 -3.2 0.1-6.2 0.5-6.3 5 12 3 23.3-0.6 34.6-3.5 -10.6 5.9-22 7.8-34.5 6.4 2.5 5.4 6.9 5.9 11.3 6.1 14.6 0.6 27.1-5 38.7-13.1 1.9-1.3 3.7-2.7 5.9-4.4 -0.2 0.9-0.2 1.1-0.4 1.3 -0.3 0.4-0.6 0.9-1 1.2 -10.4 10.7-23.1 16.6-37.8 18.2 -5.2 0.5-10.4 0.5-15.2-2.3 -4.2-2.5-6.1-7.1-5-12.1 1-4.2 3.8-6.1 9.4-6.4 3.6-0.2 7.2-0.4 10.8-1 14.5-2.3 26.8-8.8 36.6-19.8 1.6-1.8 2.9-3.7 0.3-5.4 -5-3.3-9.9-6.9-15.3-9.2 -4.9-2.1-6.1-5.3-6.5-9.9 -0.4-4.8-0.7-9.7-1.8-14.3 -1.9-8.5-8.4-10.4-14.8-4.7 -4.3 3.9-9.1 5.9-15 5.5 -2.8-0.2-5.6-0.1-8.4-0.1 -8.6 0.1-15.7 6-17 14.6 -0.5 3.5-0.4 7.2-0.6 10.9 -0.3-0.1-1-0.2-2.8-0.5 1.7 3 2.9 5.5 4.4 7.7 1.2 1.9 2.6 3.5 4 5.3 -0.3 0.2-0.6 0.5-0.9 0.7 2.1 1.3 4.2 2.6 6.4 4 -7 7.1-10.5 15.1-9.5 25 0.7-0.2 1.3-0.3 1.5-0.4 0.4 3.7 0.9 7.3 1.3 10.9 0.3 0 0.6 0.1 0.9 0.1 0.7-1 1.3-2.1 2-3.2 1 3.8 2 7.3 3.2 11.7 0.9-1.8 1.3-2.4 1.8-3.4 3.1 7.5 8.2 12.3 16 14.1 12.5 2.9 24.1 0.3 35.1-5.9 12.5-7.1 19.1-18.7 23.8-31.6 0.8-2.3 0.3-4.4-2.3-5.1 -1.2-0.4-2.6-0.3-3.6-0.3C573 324.1 572.2 320.9 571.3 317.6zM524.1 217.1c-0.2-0.3-0.4-0.5-0.5-0.8 -3.3 1.4-7 2.1-9.8 4.2 -5.6 4.2-9.7 2.9-13.8-1.9 -1-1.1-2.6-2.4-3.9-2.4 -9.3 0.4-17.9 3.2-25.6 8.7 -17 12-30.8 27-40.5 45.4 -3.9 7.5-6.8 15.7-9 23.8 -2 7.6 0.5 12.3 9.1 16.5 2.5-2.2 4.9-4.2 7.2-6.5 0.8-0.8 1.5-1.8 1.9-2.9 7.3-21.8 20.7-39.4 37.4-54.7 2.7-2.5 5.7-4.6 8.6-6.8 -2 3.1-4.4 5.7-6.8 8.3 -2.3 2.6-4.6 5.2-6.8 7.9 -2.3 2.8-4.5 5.6-6.6 8.6 -2 2.8-3.8 5.7-5.6 8.5 0.3 0.2 0.7 0.5 1 0.7C478.2 251.2 497.2 229.7 524.1 217.1zM468.1 323.4c-0.9 0.6-1.4 1-1.9 1.3 -0.6-3.3-1.2-6.3-1.9-10.1 -0.9 1.7-1.4 2.6-2 3.7 -2.4-11.2-11-15-20.8-9.5 -8.2 4.5-11.8 14.9-8.5 23.9 3.3 8.9 11.7 13.8 20.5 12C462.9 342.7 468.8 334.3 468.1 323.4zM496.1 253.1c-8.7 5.5-15.6 12-21 19.7 6.1-4.8 12-10.5 18.8-14.7 13.4-8.4 27.7-14.4 44.3-9.6 -3-7-10.4-5.2-15.6-8.4 0 1.1 0 1.7 0 2.1 -3.1-0.3-6.2-0.5-9.9-0.8 1.1 1.2 1.6 1.7 1.8 1.9 -4.8 0.7-9.5 1.3-14.3 2 0 0.3 0.1 0.6 0.1 0.9 1 0.4 2 0.8 3 1.3 -3.7 1.6-7 3-11.2 4.9C494.1 252.6 494.8 252.8 496.1 253.1z"/>
				<path d="M505.5 298.7c4.7-6.5 12.9-6.5 17.4 0C517 295.9 511.2 296.5 505.5 298.7z"/>
				<path d="M545.4 291.6c-2.1-0.4-3.8-0.7-6.4-1.2 0.5-2.7 0.9-7.4 1.5-7.4 3.8-0.2 3.6 3.7 4.7 6.2C545.5 289.7 545.4 290.4 545.4 291.6z"/>
				<path d="M540.9 302.7c-1.8 0.7-2.9 1.5-3.5 1.2 -1.1-0.6-1.9-1.8-2.8-2.8 0.8-0.5 1.8-1.6 2.3-1.5C538.1 300.2 539.1 301.3 540.9 302.7z"/>
				<path d="M522 302.4c-3.4 0.6-6.5 1.2-9.5 1.7C514.5 300.7 517.7 300 522 302.4z"/>
				<path d="M493.1 233.7c-1 0.9-1.7 1.5-2.4 2.2 -8.6-6.1-9.7-7.5-9.9-12.4C485 227 488.9 230.3 493.1 233.7z"/>
				<path d="M458.1 321.7c-3.3-5-6.4-6.6-10.5-5 -7.1 2.6-6.8 8.6-5.6 14.9 -3.9-3.1-4.7-8.6-2.1-13.1 2.7-4.6 8.5-6.8 13.5-5C457.2 314.8 458.9 317.5 458.1 321.7z"/>
				<path d="M450.6 335.9c1.5-0.2 2.7 0 3.3-0.5 1.4-1.2 3.2-2.6 3.6-4.3 0.3-1.1-1.1-3.1-2.2-4.1 -3.9-3.3-4.2-4.3-2-6.5 1.4 1.6 2.6 3.4 4.2 4.6 3 2.4 3.9 5.5 2.1 8.8C457.8 337.1 454.8 338 450.6 335.9z"/>
			</g>
		</symbol>
		<symbol id="photoshopSymbol" viewBox="0 400 200 200">
			<g id="photoshop">
				<rect class="fillBlk" x="15" y="415" width="170" height="170"/>
				<path d="M180 420v160H20V420H180M190 410H10v180h180V410L190 410z"/>
				<path d="M37.5 445l28.7 0c14.1 0 24.5 3.2 31 8.9 5.9 5.1 9.7 12.9 9.7 22.5 0 9.7-3 18.6-8.5 24.2 -7.7 7.8-19.9 11.7-33.8 11.6H53.4v41l-15.9 0V445zM53.4 498.9l11.4 0c17.2 0 27.8-7.2 27.8-21.7 0-14.3-10.5-18.8-26.1-18.8H53.4V498.9z"/>
				<path d="M112.8 535.4c4.4 2.6 12 5.4 19.2 5.4 10.3 0 14.1-4.1 14.1-7.8s-4.1-10.2-14.6-14c-14.4-5.1-21.2-13.8-21.2-23.1 0-12.4 11.7-22.6 28.7-22.6 8 0 16.3 2.1 20.6 4.8l-4.7 13.9c-3.1-1.9-8.9-4.6-16.3-4.6 -8.5 0-13.1 2.3-13.1 8.1 0 6.4 4.6 8 14.9 12 13.6 4.9 22.1 12.9 22.1 24.3 0 13.7-12.2 23.3-30.8 23.3 -8.7 0-18-2.2-23.6-5.4L112.8 535.4z"/>
			</g>
		</symbol>
		<symbol id="illustratorSymbol" viewBox="200 400 200 200">
			<g id="illustrator">
				<rect class="fillBlk" x="215" y="415" width="170" height="170"/>
				<path d="M380 420v160H220V420H380M390 410H210v180h180V410L390 410z"/>
				<path d="M260.4 520.6L248.2 555l-15.7 0 40.1-109.4 18.2 0L331 555l-16.2 0 -12.6-34.4L260.4 520.6zM299.2 509.5L287.5 478c-2.6-7.1-4.4-13.6-6.1-20l-0.3 0c-1.7 6.3-3.5 13.2-5.9 19.8l-11.5 31.7L299.2 509.5z"/>
				<path d="M357.5 453.9c0 4.9-3.7 8.8-9.8 8.8 -5.6 0-9.3-3.9-9.3-8.8 0-4.9 3.8-8.9 9.6-8.9C353.6 445 357.5 448.9 357.5 453.9zM340.4 554.6l0-78.6 15.4 0 0 78.6L340.4 554.6z"/>
			</g>
		</symbol>
		<symbol id="indesignSymbol" viewBox="400 400 200 200">
			<g id="indesign">
				<rect class="fillBlk" x="415" y="415" width="170" height="170"/>
				<path d="M580 420v160H420V420H580M590 410H410v180h180V410L590 410z"/>
				<path d="M530.1 446.1v26.2c0 0-12.5-1.6-26.2 5.2 -21 10.5-26.2 52.4-7.9 68.1 22.7 19.4 52.4 2.6 52.4 2.6V446.1H530.1zM530.1 535.2c0 0-18.4 5.2-23.6-10.5 -5.2-15.7 0-28.8 7.9-34 7.9-5.2 15.7-2.6 15.7-2.6V535.2z"/>
				<rect x="451.5" y="445" class="st14" width="18.4" height="110"/>
			</g>
		</symbol>
		<symbol id="acrobatSymbol" viewBox="600 400 200 200">
			<g id="acrobat">
				<rect class="fillBlk" x="615" y="415" width="170" height="170"/>
				<path d="M780 420v160H620V420H780M790 410H610v180h180V410L790 410z"/>
				<path class="fillWh" d="M741.8 511c-9.8 0-19.6 1.5-22.6 1.5 -3.1-3.6-13.6-15-18.2-23.5 1.6-4.6 2.9-8.5 3.5-10.9 2.3-8.9 5.3-34.8-9.8-31.9 -15.1 3 0 37.8 0 37.8s-10.2 30-17.7 41.1c0 0-21.1 5.9-29.8 16.7 -4 5-2.3 15.6 8.3 14.1 10.6-1.5 21.1-17 28.7-28.9 0.5-0.9 1.1-1.8 1.7-2.8 6.9-2.3 24.8-8.1 32.7-8.7 11.3 9.6 29.8 19 40 10.4C763.6 521.4 756.1 511 741.8 511zM647.4 550.2c-5.3-8.9 27.2-22.2 27.2-22.2S654.4 562 647.4 550.2zM693.5 449.5c13.2-10.4 2.3 30.4 2.3 30.4S685.9 455.4 693.5 449.5zM687.7 520.4c4.2-8.3 8.8-19.4 12.2-28.5 2.9 6 9.1 13.8 16.3 21.3C706.4 514.8 694.3 518.3 687.7 520.4zM721.4 514.7c0 0 30.9-5.2 30.9 4.4C752.3 530.2 738 527.3 721.4 514.7z"/>
			</g>
		</symbol>
		<symbol id="clipstudiopaintSymbol" viewBox="800 400 200 200">
			<g id="clipstudiopaint">
				<rect x="810" y="410" class="cspBg" width="180" height="180"/>
				<path class="csp" d="M902.9 570.1c-3.9 0-7.4-1.9-9.6-5.1l-20.2-29.5 66.7-34 0.1 0c0.8-0.5 5.1-3.3 7.7-7.8 2.2-3.7 4.4-9.8-1.7-20.2 -9.5-16.4-21.8-19.8-30.5-19.8 -3.9 0-6.9 0.7-8.3 1.1l-0.1 0L855.7 479l-0.1 0.1c-2 1.3-6.4 5.1-4.5 8.5s4.8 4.8 8.1 4.8c1.4 0 2.8-0.3 4.3-0.8l0.1 0 37.2-17.2c1.5-0.7 3.2-1.1 4.9-1.1 4.5 0 8.7 2.6 10.6 6.7 2.7 5.8 0.2 12.7-5.7 15.4l-38 17.6c-3.8 1.6-8.8 2.5-13.5 2.5 -8.1 0-19.5-2.7-27.5-15.3 -4.1-6.5-5.4-13.7-3.7-20.6 3-12.4 14.3-19.5 16.5-20.8l54.5-25.8c4.7-1.7 10.5-2.6 16.4-2.6 12.3 0 35.2 4.1 50.9 31.3 8.5 14.6 7.7 26.7 5.6 34.2 -4.7 16.7-19.1 25-20.8 25.9l-43.7 22.3 5.3 7.7c1.8 2.6 2.4 5.7 1.8 8.7s-2.3 5.7-4.9 7.4C907.5 569.4 905.3 570.1 902.9 570.1z"/>
			</g>
		</symbol>
		<symbol id="sketchupSymbol" viewBox="1000 400 200 200">
			<g id="sketchup">
				<path d="M1125.5 410l57 43.4 -12.3 102.1L1055.3 590l-23.6-74.3c0 0-14-88.1-14.3-89.9C1017.5 425.6 1125.5 410 1125.5 410zM1037.1 448.9l67.1-9.1 22.8 24.4 38.4-6.7 -42.9-32.7 -89.3 12.1 0.7 4.6L1037.1 448.9zM1129 494.8l-24.2-29.1 -65.1 11.2 0.5 3.6 5.1 13.3 34.8-6.2 9.3 15.7L1129 494.8zM1092.8 535.5l-0.2-0.4 -10.2-17.7 -33.6 6.6 6.5 20.3L1092.8 535.5z"/>
			</g>
		</symbol>
		<symbol id="wordSymbol" viewBox="600 200 200 200">
			<g id="word">
				<polygon points="718 233.8 718 250.7 773 250.7 773 258.6 718 258.6 718 268.6 773 268.6 773 276.5 718 276.5 718 286.5 773 286.5 773 294.4 718 294.4 718 304.4 773 304.4 773 312.3 718 312.3 718 322.2 773 322.2 773 330.2 718 330.2 718 340.1 773 340.1 773 349.1 718 349.1 718 366.3 790 366.2 790 233.8 "/>
				<path d="M610 230.2v139.9L714 386V214L610 230.2zM681.5 329.3l-10.4 0 -9.7-43.9 -9.5 43.9 -10.6 0 -11.7-58.7 10 0L647 311l8.8-40.4 11.6 0 8.6 41 7.4-41.1 9.9 0L681.5 329.3z"/>
			</g>
		</symbol>
		<symbol id="excelSymbol" viewBox="800 200 200 200">
			<g id="excel">
				<path d="M920 233.6v10.5l25 0v16h-25v7h25l0 17h-25v7h25v16h-25v7h25v16h-25v7h25v17h-25v12h69V233L920 233.6zM979 353.9h-28v-17h28V353.9zM979 329.9h-28v-16h28V329.9zM979 307h-28v-16h28V307zM979 284h-28v-17h28V284zM979 260.1h-28v-16h28V260.1z"/>
				<path d="M811 230.9v139.9L914 386V214L811 230.9zM874.4 328.4l-11-20.2 -10.7 20.4 -11.8 0.1 16.4-30.8 -15.3-28 11.5-0.1 9.9 18.8 9.4-19 11.4-0.1 -14.9 28.7 16.9 30.1L874.4 328.4z"/>
			</g>
		</symbol>
		<symbol id="powerpointSymbol" viewBox="1000 200 200 200">
			<g id="powerpoint">
				<polygon points="1118 246.3 1118 253.2 1182 253.2 1182 333.8 1190 333.8 1190 246.3 "/>
				<path class="st21" d="M1118 258.2v9.4c2.4-0.8 4.8-1.2 7.4-1.2 0.8 0 1.6 0.1 2.4 0.1l0 23.1 20.9 0 0 0c0 12.8-10.4 23.2-23.3 23.2 -2.6 0-5.1-0.4-7.4-1.2v6.4h47v8h-47v9h47v8h-47v9h60v-93.6H1118zM1130.2 287.2l0-22c11.9 0.6 21.5 10.1 22.1 22L1130.2 287.2z"/>
				<path d="M1010 230.1v139.9l103 16.1V214L1010 230.1zM1082.4 298.8c-1.1 2.5-2.5 4.4-4.1 5.8 -1.7 1.4-3.4 2.3-5.1 2.8 -2.3 0.6-5.8 0.8-10.2 0.8l-6.4 0 0 22.2 -9.9 0 0-58.8 15.8 0c6 0 9.9 0.3 11.7 0.9 2.8 0.9 5.1 2.8 7 5.8 1.9 2.9 2.8 6.8 2.8 11.4C1084 293.3 1083.5 296.4 1082.4 298.8z"/>
				<path d="M1068.4 282c-1.2-0.3-3.5-0.4-7.1-0.4l-4.8 0 0 16.7 5.4 0c3.9 0 6.5-0.3 7.8-0.9 1.3-0.6 2.3-1.6 3.1-2.9 0.7-1.3 1.1-2.8 1.1-4.6 0-2.1-0.5-3.9-1.6-5.3C1071.3 283.2 1070 282.3 1068.4 282z"/>
			</g>
		</symbol>
		<symbol id="googledriveSymbol" viewBox="0 0 200 200">
			<g id="googledrive">
			  <polygon class="gdy" points="190 121.7 131.2 21.3 70.8 21.3 129.5 121.7 190 121.7"/>
			  <polygon class="gdb" points="73.8 125.5 43.9 179 160.1 179 190 125.5 73.8 125.5"/>
			  <polygon class="gdg" points="67.4 23.6 10 124.7 40.5 176.9 98 75.8 67.4 23.6"/>
			</g>
		</symbol>
	</defs>
	<title>software icons</title>
</svg>
