<svg xmlns="http://www.w3.org/2000/svg" id="comicsIcon" class="rightNavSVG" viewBox="0 0 216 216"><style>.a{fill:#FFF;opacity:0.5;}</style><rect id="comicsemptyContainer" width="216" height="216" fill="none"/><path d="M200.8 45.4v159.5c0 0.6-0.2 1.2-0.7 1.7 -0.3 0.3-0.8 0.5-1.2 0.5 -0.1 0-0.2 0-0.3 0 -0.3-0.1-35.3-6.5-61.7-6.5 -18.8 0-25.2 3.2-27.4 5.8 -0.4 0.5-0.9 0.7-1.4 0.7s-1.1-0.3-1.4-0.7c-2.1-2.6-8.6-5.8-27.4-5.8 -26.4 0-61.4 6.4-61.7 6.5 -0.1 0-0.2 0-0.3 0 -0.5 0-0.9-0.2-1.2-0.5 -0.4-0.4-0.7-1-0.7-1.7V45.4c-1.5 0.2-2.4 0.3-2.4 0.3v163.5c0 0 82.8-14.7 95.2 0 12.3-14.7 95.2 0 95.2 0V45.6C203.2 45.6 202.3 45.5 200.8 45.4z" class="a"/><path d="M196.4 41.1v160.1c0 0.6-0.3 1.2-0.7 1.7 -0.3 0.3-0.8 0.5-1.2 0.5 -0.1 0-0.2 0-0.3 0 -0.3-0.1-33.6-6.5-58.8-6.5 -17.8 0-23.9 3.1-26 5.8 -0.4 0.5-0.9 0.8-1.5 0.8 -0.6 0-1.1-0.3-1.5-0.8 -2-2.6-8.1-5.8-26-5.8 -25.2 0-58.4 6.4-58.8 6.5 -0.1 0-0.2 0-0.3 0 -0.4 0-0.9-0.2-1.2-0.5 -0.4-0.4-0.7-1-0.7-1.7V41.1c-1.5 0.2-2.4 0.3-2.4 0.3v163.5c0 0 79.1-14.7 90.8 0 11.8-14.7 90.8 0 90.8 0V41.4C198.8 41.4 198 41.3 196.4 41.1z" class="a"/><path d="M108 47.9C92.1 28.7 21.5 37.7 21.5 37.7v163.5c0 0 75.3-14.7 86.5 0 11.2-14.7 86.5 0 86.5 0V37.7C194.5 37.7 123.9 28.7 108 47.9z" class="a"/><path d="M203.5 41.3c0 0-1.4-0.1-2.8-0.2 -0.1-1 0-2.9-1.7-3.2 0 0-1.3-0.1-2.6-0.2v-1.3c0-1.1-0.7-2-1.7-2.2 -0.2 0-16.8-2.1-35.5-2.1 -26.1 0-43.3 3.9-51.2 11.5 -7.9-7.6-25.1-11.5-51.2-11.5 -18.7 0-35.4 2.1-35.5 2.1 -1 0.1-1.7 1-1.7 2.2v1.3c-1.3 0.1-2.6 0.2-2.6 0.2 -1.7 0.1-1.6 2.2-1.7 3.2 -1.4 0.1-2.8 0.2-2.8 0.2 -2 0.2-3.5 2.1-3.5 4.3v163.5c0 1.3 0.5 2.5 1.3 3.3 0.7 0.7 1.6 1 2.5 1 0.2 0 0.4 0 0.6-0.1 0.4-0.1 36.8-6.5 64.4-6.5 20.8 0 26.1 3.6 27.4 5.2 0.7 0.9 1.7 1.4 2.8 1.4 1.1 0 2.1-0.5 2.8-1.4 1.3-1.6 6.6-5.2 27.4-5.2 27.6 0 64 6.4 64.4 6.5 0.2 0 0.4 0.1 0.6 0.1 0.9 0 1.8-0.4 2.5-1 0.9-0.8 1.3-2 1.3-3.3V45.6C207 43.4 205.5 41.6 203.5 41.3zM21.5 37.7c0 0 16.5-2.1 35.3-2.1 19.4 0 41.3 2.2 50.2 11.3v147.6c0 0.6 0.4 1.1 1 1.1 0.5 0 1-0.5 1-1.1V46.9c8.9-9 30.8-11.3 50.2-11.3 18.8 0 35.3 2.1 35.3 2.1v163.5c0 0-33.5-6.5-59.1-6.5 -12.8 0-23.7 1.6-27.4 6.5 -3.7-4.9-14.6-6.5-27.4-6.5 -25.6 0-59.1 6.5-59.1 6.5V37.7zM17.2 41.4c0 0 1.2-0.1 2.4-0.2v160c0 0.6 0.3 1.2 0.7 1.7 0.3 0.3 0.8 0.5 1.2 0.5 0.1 0 0.2 0 0.3 0 0.3-0.1 33.6-6.5 58.8-6.5 17.8 0 23.9 3.1 26 5.8 0.4 0.5 0.9 0.8 1.5 0.8 0.6 0 1.1-0.3 1.5-0.8 2-2.6 8.1-5.8 26-5.8 25.2 0 58.4 6.4 58.8 6.5 0.1 0 0.2 0 0.3 0 0.4 0 0.9-0.2 1.2-0.5 0.4-0.4 0.7-1 0.7-1.7v-160c1.2 0.1 2.4 0.2 2.4 0.2v163.5c0 0-35.1-6.5-62-6.5 -13.5 0-24.9 1.6-28.8 6.5 -3.9-4.9-15.3-6.5-28.8-6.5 -26.9 0-62 6.5-62 6.5V41.4zM203.2 209.1c0 0-36.8-6.5-65-6.5 -14.1 0-26 1.6-30.2 6.5 -4.1-4.9-16.1-6.5-30.2-6.5 -28.2 0-65 6.5-65 6.5V45.6c0 0 1.2-0.1 2.4-0.2v159.4c0 0.6 0.2 1.2 0.7 1.7 0.3 0.3 0.8 0.5 1.2 0.5 0.1 0 0.2 0 0.3 0 0.3-0.1 35.3-6.5 61.7-6.5 18.8 0 25.2 3.2 27.4 5.8 0.4 0.5 0.9 0.7 1.4 0.7 0.5 0 1.1-0.3 1.4-0.7 2.1-2.6 8.6-5.8 27.4-5.8 26.4 0 61.4 6.4 61.7 6.5 0.1 0 0.2 0 0.3 0 0.5 0 0.9-0.2 1.2-0.5 0.4-0.4 0.7-1 0.7-1.7V45.5c1.2 0.1 2.4 0.2 2.4 0.2V209.1z"/><path d="M100.3 89.5c0 0-0.1 0-0.1 0 -0.3-0.1-31.8-5.3-69.7-1.1 -0.2 0-0.4-0.1-0.6-0.2 -0.2-0.2-0.2-0.4-0.2-0.6V48.9c0-0.4 0.3-0.8 0.7-0.8 2.6-0.1 64.5-2.7 70.5 6.5 0.1 0.1 0.1 0.3 0.1 0.5v33.5c0 0.2-0.1 0.5-0.3 0.6C100.6 89.4 100.5 89.5 100.3 89.5zM61 85.1c20.1 0 35 2.1 38.6 2.6V55.4c-5.2-6.8-50.4-6.4-68.4-5.7v37C41.8 85.5 51.9 85.1 61 85.1z"/><path d="M30.5 151.5c-0.2 0-0.3-0.1-0.5-0.2 -0.2-0.2-0.3-0.4-0.3-0.6V92.8c0-0.4 0.3-0.8 0.6-0.8 5.3-0.6 11.3-1.1 17.7-1.4 0.2 0 0.4 0.1 0.5 0.2 0.1 0.2 0.2 0.4 0.2 0.6V148c0 0.4-0.3 0.8-0.6 0.8 -5.5 0.7-11.4 1.7-17.6 2.8C30.5 151.5 30.5 151.5 30.5 151.5zM31.2 93.5v56.3c5.6-1 11.1-1.9 16.2-2.5v-55C41.5 92.5 36.1 92.9 31.2 93.5z"/><path d="M51.9 148.5c-0.2 0-0.3-0.1-0.5-0.2 -0.2-0.2-0.2-0.4-0.2-0.6l0-56.4c0-0.4 0.3-0.8 0.7-0.8 11.7-0.3 19.8 0 28.4 0.4 0.4 0 0.7 0.4 0.7 0.8v55.7c0 0.2-0.1 0.5-0.2 0.6 -0.2 0.2-0.4 0.2-0.6 0.2C80.1 148.1 66.9 146.5 51.9 148.5 52 148.5 52 148.5 51.9 148.5zM52.7 92.1l0 54.7c12.6-1.6 23.9-0.7 26.9-0.4v-54C71.4 92.1 63.6 91.8 52.7 92.1z"/><path d="M100.3 153.2c-0.2 0-0.3-0.1-0.4-0.2 0 0-4-3.4-16.2-4.5 -0.4 0-0.7-0.4-0.7-0.8l0-56.1c0-0.4 0.3-0.8 0.7-0.8 11.2-0.5 16.7 2.1 16.9 2.2 0.3 0.1 0.4 0.4 0.4 0.7v58.6c0 0.3-0.2 0.6-0.4 0.7C100.5 153.2 100.4 153.2 100.3 153.2zM84.4 147c8.7 0.9 13.2 2.9 15.1 4V94.4c-1.4-0.6-6.5-2.3-15.1-2L84.4 147z"/><path d="M30.5 189.6c-0.2 0-0.3-0.1-0.5-0.2 -0.2-0.2-0.3-0.4-0.3-0.6v-33.3c0-0.4 0.3-0.7 0.6-0.8 0.2 0 22.6-4.4 35.1-4.2 0.4 0 0.7 0.4 0.7 0.8v32.8c0 0.4-0.3 0.8-0.7 0.8 -11.6 0-34.6 4.5-34.8 4.6C30.5 189.5 30.5 189.6 30.5 189.6zM31.2 156.1v31.6c4.2-0.8 22.9-4.3 33.5-4.4v-31.2C53.4 152 34.8 155.5 31.2 156.1z"/><path d="M100.3 187.9c-0.1 0-0.2 0-0.3-0.1 -10.6-5.3-31.2-2.9-31.4-2.9 -0.2 0-0.4-0.1-0.6-0.2 -0.2-0.2-0.2-0.4-0.2-0.6v-32.8c0-0.4 0.3-0.7 0.6-0.8 0.1 0 13.8-2.3 32.1 5 0.3 0.1 0.5 0.4 0.5 0.8v30.8c0 0.3-0.1 0.5-0.3 0.7C100.6 187.9 100.4 187.9 100.3 187.9zM79.3 182.8c6.4 0 14.4 0.6 20.2 3.1v-29.1C84 150.8 72 151.7 69.2 152v31.2C70.8 183.1 74.7 182.8 79.3 182.8z"/><path d="M116 100c-0.2 0-0.3-0.1-0.5-0.2 -0.2-0.2-0.3-0.4-0.3-0.6V54.8c0-0.2 0-0.3 0.1-0.5 5.9-9.3 67.8-6.6 70.5-6.5 0.4 0 0.7 0.4 0.7 0.8V97c0 0.2-0.1 0.5-0.2 0.6 -0.2 0.2-0.4 0.2-0.6 0.2 -34.4-4.5-69.3 2.1-69.6 2.2C116.1 100 116.1 100 116 100zM116.7 55.1v43.1c5.5-1 37-6.1 68.4-2.1V49.4C167.1 48.6 121.9 48.3 116.7 55.1z"/><path d="M185.9 139.6c-0.1 0-0.1 0-0.2 0 -2.4-0.7-10.8-2.8-17.4-2.7 0 0 0 0 0 0 -0.2 0-0.4-0.1-0.5-0.2 -0.1-0.2-0.2-0.4-0.2-0.6v-36c0-0.2 0.1-0.4 0.2-0.6 0.1-0.2 0.3-0.2 0.5-0.2 0.1 0 8.9 0.2 17.7 1.4 0.4 0 0.6 0.4 0.6 0.8v37.4c0 0.2-0.1 0.5-0.3 0.6C186.2 139.6 186 139.6 185.9 139.6zM169 135.2c6 0.1 13.1 1.7 16.2 2.6v-35.6c-7-0.9-14-1.2-16.2-1.2V135.2z"/><path d="M116 140.2c-0.2 0-0.3-0.1-0.5-0.2 -0.2-0.2-0.3-0.4-0.3-0.6v-35.8c0-0.4 0.2-0.7 0.6-0.8 0.2 0 20-4.7 48.6-3.7 0.4 0 0.7 0.4 0.7 0.8l0 35.9c0 0.2-0.1 0.4-0.2 0.6 -0.1 0.2-0.3 0.2-0.5 0.2 -25.4-1.4-48 3.5-48.2 3.6C116.1 140.2 116.1 140.2 116 140.2zM116.7 104.3v34.2c4.3-0.9 24.4-4.6 46.9-3.5l0-34.2C138.3 99.9 120.1 103.5 116.7 104.3z"/><path d="M185.9 189.6c-0.1 0-0.2 0-0.3-0.1 -0.1 0-11.6-4.8-44.3-5.6 -0.4 0-0.7-0.4-0.7-0.8v-42.6c0-0.4 0.3-0.8 0.7-0.8 25.3-2.8 44.6 2.8 44.8 2.8 0.3 0.1 0.5 0.4 0.5 0.8v45.5c0 0.3-0.1 0.5-0.3 0.7C186.1 189.5 186 189.6 185.9 189.6zM142 182.3c27.6 0.7 39.8 4.2 43.1 5.3v-43.7c-3.2-0.9-20.7-5-43.1-2.7V182.3z"/><path d="M116 187.9c-0.1 0-0.3-0.1-0.4-0.1 -0.2-0.2-0.3-0.4-0.3-0.7v-43.8c0-0.4 0.3-0.7 0.6-0.8 15-3 22-2.8 22.3-2.8 0.4 0 0.7 0.4 0.7 0.8v42.6c0 0.2-0.1 0.4-0.2 0.6 -0.1 0.2-0.3 0.3-0.5 0.2 -0.1 0-11.9 0-21.9 4C116.2 187.9 116.1 187.9 116 187.9zM116.7 144v42c8.6-3.2 18.1-3.7 20.7-3.7v-40.9C135.4 141.4 128.6 141.7 116.7 144z"/></svg>