<?xml version="1.0" encoding="utf-8"?>
<!-- Generator: Adobe Illustrator 20.1.0, SVG Export Plug-In . SVG Version: 6.00 Build 0)  -->
<svg version="1.1" id="Layer_1" xmlns="http://www.w3.org/2000/svg" xmlns:xlink="http://www.w3.org/1999/xlink" x="0px" y="0px"
	 viewBox="0 0 618 600" enable-background="new 0 0 618 600" xml:space="preserve">
<g id="rightwing">
	<path fill-rule="evenodd" clip-rule="evenodd" fill="#E6E6E6" d="M615,233.6l-1.3-2.8l-2.9,0.9c-10.2,3.3-27,14.6-43.2,25.4
		c-10.7,7.2-20.8,14-27.2,17.2c-18.8,9.4-78,38.6-99.8,44.5c1.6-14.2,2.9-28.8-1.4-43.6c9.8-10.1,20.5-20.3,33.7-31.9
		c5.3-4.7,10.7-9.8,15.8-14.7l4-3.8c25.2-23.8,50.6-55.2,67.9-84.1c10.1-16.9,20.5-39.3,27.4-54.1c0.9-2.1,1.9-4.1,2.8-5.9
		c1.3,15.8-3.8,40.9-7,57c-0.5,2.4-0.9,4.6-1.3,6.6l-2.2,11l8-7.9c13.8-13.7,23.9-40,26.9-70.2c2.3-23.1,0.3-52.5-12-66
		C603.1,11.3,593.3,1,587.1,1c-0.3,0-0.6,0-0.9,0.1c-5.1,0.8-11.4,12.5-37.4,83.2c-2.5,6.9-4.6,12.4-5.7,15.2
		c-22.8,49-56,110.8-112,156.5c-6.3-8.3-19.2-16.2-32.5-16.2c-3.2,0-6.5,0.5-9.5,1.5c-2.5,0.9-6.1,2-6.3,5.2c-0.1,1.1,0.7,2.7,1,3.6
		c0.3,0.8,0.7,1.5,1,2.3c1.6,3.8,3,7.7,4.5,11.5c1,2.6,2.1,5.3,3,8c3.9,11.3,8.9,32.9,8,45.6c-2.1,29.3-18.9,52.3-36.6,76.6
		c-9.6,13.1-19.5,26.7-27.4,41.8c-9.1,17.3-15.5,41.8-16.6,64.2c-1.7,34.8,12.5,64.2,40,82.7c15.4,10.3,36.8,16.3,58.9,16.3
		c8.9,0,17.5-1,25.5-2.8c13.9-3.3,21.1-7.4,27.5-11.1l1.5-0.9c10.1-5.8,13.7-12.5,14.9-17.1c1.2-4.4,0.7-8.9-1.2-12.2l-0.6-1.1
		l-1.2-0.4c-5.6-2-13.6-3.1-22.7-3.1c-2.7,0-5.4,0.1-8.1,0.3c-6.6,0.4-13.2,1.1-19.6,1.8c-10.6,1.1-21.7,2.3-32.4,2.3
		c-11.2,0-21-1.3-29.9-3.9c-16-4.7-26.6-18.9-31.5-42.3c-3.7-17.3,0.5-35.7,12.7-56.2c10-16.7,24.5-33.6,37.3-48.5l2.8-3.3
		c3.5-1,17.6-4.4,21.7-5.2c14.9-3.1,35.6-3.5,46.5-3.5c7.3,0,14.4,0.2,20.6,0.6c21.7,1.3,51.1,10.6,62,16.3
		c-2.4,0.2-5.2,0.3-8.3,0.3c-9.4,0-23.1-1.2-27.4-1.5c-4.3-0.3-13.5-1.2-13.5-1.2s2.6,2,9.1,4.9c6.5,3,36.5,11.8,56.6,11.8
		c10.6,0,19-1.5,25.2-4.5l1.7-0.8l0.2-1.9c0.6-5.1-1.1-10-4.9-14.7c-14.5-17.7-56.9-26.7-69.8-27.8c-6.6-0.6-13.6-0.9-20.6-0.9
		c-30.2,0-60.1,5.3-86.7,10.8c8.8-12,20.4-32.1,29.8-49c30.9-6.6,78.9-24.5,98.4-31.9c11.7-4.5,31.4-14.6,44.9-21.7
		c-4.5,6.6-17.7,23-24.7,28.2l11.1-3.4c12.2-2.4,24-14.5,32.5-22.9c0.9-0.9,1.7-1.7,2.5-2.4C613.9,267.4,620.6,245.6,615,233.6z
		 M498.7,491.4c-0.8-7.1-3.3-14.5-7.5-22.1c-2.7-4.9-6.4-9.9-10.5-14.2c-15.4-16-36.5-25.7-57.9-26.6c-1.9-0.1-3.9-0.1-5.8-0.1
		c-4.1,0-8.2,0.2-12.2,0.6c-0.2,0-1,0.1-6.6,1.6c-6.7,1.8-9.4,4.7-9.4,4.7l2.7,2.9c4.8,3.9,8.5,8.2,11,13c2.3,4.3,3.7,7.7,4.2,10.1
		c-1.7-0.2-3.5-0.5-5.7-1c-6.4-1.4-10-4.9-14.5-9.5c-1.5-1.6-3.1-3.2-4.9-4.8l-3.9-3.5l-1.7,4.9c-1.9,5.6-3.1,15-3,23
		c0.2,13.2,3.4,29.8,7.3,38.5c4.5,10,13.3,15.4,24.1,15.7c8.6,0.2,16-2.3,22.1-8.4c1.1-1.1,1.5-2.5,1.3-4
		c-0.6-3.4-4.6-7.2-23.6-16.5c-0.9-0.4-1.5-0.7-1.8-0.9c-3.6-2-8.6-8.8-12.1-16.1c8,8.1,17,12.8,25.4,12.8c6.6,0,12.3-3.1,16.1-8.6
		l0.7-1l-0.1-1.3c-1.3-12.3-5.8-23.3-13.5-33.7c-1.1-1.4-3.2-3.4-5.6-5.4h0.4c24.5,0,45.6,17,60.1,48.1c-4.4-1.9-14.9-8.9-19.1-13.1
		c0,0,0.5,2,3,7.4c2.5,5.4,11.2,18,16.3,21.7c5.5,4,10.3,5.9,14.8,5.9c1.5,0,3-0.2,4.4-0.6c7.6-2.2,6.1-13.9,5.5-18.9L498.7,491.4z"
		/>
	<g>
		<g>
			<path fill-rule="evenodd" clip-rule="evenodd" d="M562.5,304.2c12.5-2.4,28.7-19.7,35.7-26.4c11.8-11.5,18.7-31.9,13.6-42.7
				c-16.5,5.4-53.8,34.4-69.9,42.4c-13.3,6.7-87.2,43.5-105.3,45.8c1.9-16.4,4-32.4-1.4-48.8c11.2-11.7,23-22.7,35.3-33.6
				c6.8-6,13.7-12.7,19.8-18.4c27.4-25.9,51.7-57.3,67.3-83.4c15.6-26.1,32.3-66.2,34.5-68.5c6.5,16-2.6,55.5-6.3,74.5
				c28.9-28.7,35.2-109.1,14.7-131.4c-2.2-2.4-10.4-9.7-13.9-9.2c-6.5,1-34.9,82.3-40.5,96.4c-26.8,57.8-61.7,117.1-116,160.2
				c-5.8-11-27.6-23.9-44.3-14.6c0.3-0.2,9,22.5,9.7,24.3c4.2,12.3,9.1,33.9,8.2,47c-3.3,46.4-41.8,76.9-64.4,119.7
				c-9.5,18.1-15.2,42.5-16.2,62.7c-1.6,32.1,11,61.2,38.5,79.7c22.2,14.9,55.5,19.1,81.6,12.9c14.5-3.4,21.3-7.8,28.1-11.6
				c15.6-8.9,14.9-20.3,12.4-24.5c-6.3-2.3-17-3.5-29.4-2.6c-27.9,1.9-55.6,8.2-83.1,0c-20.1-5.9-29.7-25-33.9-44.8
				c-4.4-20.8,2.5-40.9,13.2-58.7c11-18.4,27.3-36.8,41.1-53c0.3-0.4,18.8-4.8,23-5.7c19-3.9,49.8-4.1,68-3
				c26.9,1.6,69.2,15.8,69.2,21.9c-9.2,3-32.9,1.5-44.5-1.2c1.3,2.3,54.2,17.1,77.3,5.8c2.6-23.5-54.6-37.2-71.6-38.7
				c-39-3.3-78,3.8-115.9,12c8.9-8.6,25.9-38.3,36.5-57.5c26.3-5.4,68.4-20.2,99.4-32.1c13.8-5.3,39.6-18.8,53.8-26.5
				C587.2,277,573.8,295.8,562.5,304.2z M488.2,470.9c-2.7-4.9-6.2-9.5-10-13.5c-14.6-15.1-34.5-24.7-55.5-25.6
				c-5.8-0.2-11.6-0.1-17.4,0.4c-1,0.1-11.7,2.9-11.5,3c4.8,3.9,9,8.6,11.8,14.1c2,3.8,5.6,11,4.7,15.4c-3.2,0-6.8-0.6-9.9-1.3
				c-9.8-2.1-13.9-8.8-21-15.1c-1.8,5.1-2.9,14.3-2.8,21.9c0.2,12.6,3.2,28.7,7,37.2c4.8,10.6,13.2,13.6,21.2,13.5
				c7.8,0.6,13.8-1.7,19.4-7.2c3.5-3.5-21.3-14.9-23.3-16c-7.8-4.3-19.2-24.9-18.6-35.6c14.6,25.1,37,33.1,46.7,18.7
				c-1.4-13.4-6.7-23.8-12.9-31.9c-1.8-2.3-7.8-7.4-12.4-10.1c32.5-5.4,59.4,15.8,75.8,55.3c-7.9,0.3-15.2-6.3-21.2-12.3
				c3.6,5.7,13.1,17.6,17.8,21c7.2,5.2,12.1,6,16.3,4.8c5-1.5,3.4-12.2,3-15.8C494.4,484.4,491.7,477.4,488.2,470.9z"/>
		</g>
	</g>
</g>
<g id="leftwing">
	<path fill-rule="evenodd" clip-rule="evenodd" fill="#E6E6E6" d="M17.4,280.3c0.7,0.7,1.5,1.5,2.5,2.4c8.5,8.4,20.3,20.5,32.5,22.9
		l11.1,3.4c-7-5.2-20.2-21.6-24.7-28.2c13.4,7.1,33.1,17.2,44.9,21.7c19.4,7.4,67.5,25.2,98.4,31.9c9.4,16.9,21,37,29.8,49
		c-26.5-5.6-56.4-10.8-86.7-10.8c-7,0-13.9,0.3-20.6,0.9c-13,1.1-55.3,10.1-69.8,27.8c-3.8,4.7-5.5,9.6-4.9,14.7l0.2,1.9l1.7,0.8
		c6.2,3,14.7,4.5,25.2,4.5c20.2,0,50.1-8.8,56.6-11.8c6.5-3,9.1-4.9,9.1-4.9s-9.2,0.9-13.5,1.2c-4.3,0.3-17.9,1.5-27.4,1.5
		c-3.1,0-5.9-0.1-8.3-0.3c10.9-5.7,40.3-15,62-16.3c6.2-0.4,13.3-0.6,20.6-0.6c11,0,31.6,0.5,46.5,3.5c4.1,0.9,18.2,4.2,21.7,5.2
		l2.8,3.3c12.8,14.9,27.4,31.8,37.3,48.5c12.3,20.5,16.4,38.9,12.7,56.2c-5,23.3-15.6,37.5-31.5,42.3c-8.9,2.7-18.7,3.9-29.9,3.9
		c-10.7,0-21.7-1.2-32.4-2.3c-6.4-0.7-13-1.4-19.6-1.8c-2.7-0.2-5.5-0.3-8.1-0.3c-9.1,0-17.1,1.1-22.7,3.1l-1.2,0.4l-0.6,1.1
		c-1.9,3.2-2.4,7.8-1.2,12.2c1.2,4.6,4.8,11.3,14.9,17.1l1.5,0.9c6.4,3.7,13.6,7.8,27.5,11.1c8,1.9,16.6,2.8,25.5,2.8
		c22.1,0,43.5-5.9,58.9-16.3c27.5-18.5,41.7-47.9,40-82.7c-1.1-22.3-7.5-46.9-16.6-64.2c-8-15.1-17.9-28.7-27.4-41.8
		c-17.7-24.3-34.5-47.3-36.6-76.6c-0.9-12.7,4.1-34.3,8-45.6c0.9-2.7,2-5.3,3-8c1.5-3.8,3-7.7,4.5-11.5c0.3-0.8,0.7-1.5,1-2.3
		c0.4-1,1.1-2.6,1-3.6c-0.2-3.2-3.8-4.3-6.3-5.2c-3.1-1-6.3-1.5-9.5-1.5c-13.2,0-26.1,7.9-32.5,16.2c-56-45.7-89.2-107.5-112-156.5
		c-1.1-2.8-3.1-8.3-5.7-15.2C43.2,13.6,36.9,1.8,31.8,1.1C31.5,1,31.2,1,30.9,1c-6.2,0-16,10.3-16.1,10.4
		c-12.4,13.5-14.3,42.9-12,66c3,30.2,13.1,56.4,26.9,70.2l8,7.9l-2.2-11c-0.4-2-0.8-4.2-1.3-6.6c-3.3-16.1-8.3-41.2-7-57
		c0.9,1.8,1.8,3.9,2.8,5.9c6.9,14.8,17.3,37.2,27.4,54.1c17.3,28.9,42.7,60.3,67.9,84.1l4,3.8c5.2,4.9,10.5,9.9,15.8,14.7
		c13.2,11.6,23.9,21.8,33.7,31.9c-4.3,14.8-3.1,29.4-1.4,43.6c-21.8-5.9-81-35.1-99.8-44.5c-6.4-3.2-16.5-10-27.2-17.2
		c-16.2-10.9-33-22.1-43.2-25.4l-2.9-0.9L3,233.6C-2.6,245.6,4.1,267.4,17.4,280.3z M119.3,492c-0.6,5-2.1,16.7,5.5,18.9
		c1.5,0.4,3,0.6,4.4,0.6c4.5,0,9.4-1.9,14.8-5.9c5.2-3.8,13.8-16.3,16.3-21.7c2.5-5.4,3-7.4,3-7.4c-4.2,4.2-14.7,11.2-19.1,13.1
		c14.5-31,35.6-48.1,60.1-48.1h0.4c-2.4,2-4.5,4-5.6,5.4c-7.8,10.3-12.2,21.3-13.5,33.7l-0.1,1.3l0.7,1c3.8,5.6,9.5,8.6,16.1,8.6
		c8.4,0,17.4-4.7,25.4-12.8c-3.6,7.3-8.5,14.1-12.1,16.1c-0.3,0.1-0.9,0.4-1.8,0.9c-19,9.3-23,13.1-23.6,16.5c-0.2,1.5,0.2,3,1.3,4
		c6.1,6.1,13.5,8.6,22.1,8.4c10.8-0.3,19.6-5.7,24.1-15.7c3.9-8.8,7.1-25.3,7.3-38.5c0.1-8-1.1-17.5-3-23l-1.7-4.9l-3.9,3.5
		c-1.8,1.6-3.4,3.2-4.9,4.8c-4.5,4.5-8,8.1-14.5,9.5c-2.1,0.5-4,0.8-5.7,1c0.5-2.4,1.9-5.8,4.2-10.1c2.5-4.8,6.2-9.1,11-13l2.7-2.9
		c0,0-2.7-2.9-9.4-4.7c-5.6-1.5-6.4-1.6-6.6-1.6c-4-0.4-8-0.6-12.2-0.6c-1.9,0-3.8,0-5.8,0.1c-21.3,0.9-42.4,10.6-57.9,26.6
		c-4.2,4.4-7.8,9.3-10.5,14.2c-4.1,7.6-6.6,15-7.5,22.1L119.3,492z"/>
	<g>
		<g>
			<path fill-rule="evenodd" clip-rule="evenodd" d="M294.8,500.2c-1-20.2-6.6-44.6-16.2-62.7c-22.6-42.8-61.1-73.3-64.4-119.7
				c-0.9-13,4-34.7,8.2-47c0.6-1.9,9.4-24.5,9.7-24.3c-16.7-9.3-38.5,3.6-44.3,14.6c-54.3-43.1-89.1-102.4-116-160.2
				c-5.5-14-33.9-95.4-40.5-96.4c-3.5-0.5-11.7,6.8-13.9,9.2C-3.2,36.1,3.2,116.4,32.1,145.1c-3.7-19-12.9-58.6-6.3-74.5
				c2.2,2.3,18.9,42.4,34.5,68.5c15.6,26.1,39.9,57.5,67.3,83.4c6.1,5.7,13,12.4,19.8,18.4c12.3,10.9,24.1,21.9,35.3,33.6
				c-5.4,16.4-3.2,32.4-1.4,48.8c-18.1-2.3-92-39.1-105.3-45.8c-16.1-8.1-53.4-37.1-69.9-42.4c-5.1,10.8,1.9,31.3,13.6,42.7
				c6.9,6.8,23.2,24,35.7,26.4C44.2,295.8,30.8,277,31,272.7c14.2,7.7,40,21.2,53.8,26.5c31,11.9,73.1,26.6,99.4,32.1
				c10.6,19.2,27.6,48.9,36.5,57.5c-37.9-8.2-76.9-15.3-115.9-12c-17,1.5-74.2,15.2-71.6,38.7c23.1,11.3,76-3.5,77.3-5.8
				c-11.6,2.6-35.2,4.2-44.5,1.2c-0.1-6.1,42.3-20.3,69.2-21.9c18.3-1.1,49-0.9,68,3c4.3,0.9,22.7,5.3,23,5.7
				c13.9,16.2,30.1,34.5,41.1,53c10.7,17.8,17.6,37.9,13.2,58.7c-4.2,19.8-13.9,38.9-33.9,44.8c-27.5,8.2-55.2,1.9-83.1,0
				c-12.5-0.9-23.1,0.3-29.4,2.6c-2.5,4.2-3.2,15.6,12.4,24.5c6.8,3.9,13.6,8.2,28.1,11.6c26.2,6.2,59.4,2,81.6-12.9
				C283.8,561.4,296.4,532.3,294.8,500.2z M159.8,481.8c-6,6.1-13.3,12.7-21.2,12.3c16.4-39.6,43.3-60.7,75.8-55.3
				c-4.6,2.7-10.6,7.8-12.4,10.1c-6.1,8.1-11.4,18.5-12.9,31.9c9.7,14.3,32.1,6.4,46.7-18.7c0.6,10.7-10.8,31.3-18.6,35.6
				c-2.1,1.1-26.9,12.5-23.3,16c5.6,5.6,11.6,7.9,19.4,7.2c7.9,0.1,16.4-2.9,21.2-13.5c3.8-8.5,6.8-24.6,7-37.2
				c0.1-7.6-1.1-16.7-2.8-21.9c-7.1,6.3-11.1,13-21,15.1c-3.1,0.7-6.7,1.3-9.9,1.3c-1-4.4,2.6-11.6,4.7-15.4
				c2.9-5.5,7-10.2,11.8-14.1c0.2-0.1-10.5-2.9-11.5-3c-5.8-0.6-11.6-0.7-17.4-0.4c-21,0.9-40.9,10.5-55.5,25.6
				c-3.9,4-7.3,8.6-10,13.5c-3.5,6.5-6.2,13.5-7.1,20.8c-0.4,3.6-2.1,14.3,3,15.8c4.2,1.2,9.1,0.5,16.3-4.8
				C146.7,499.4,156.2,487.5,159.8,481.8z"/>
		</g>
	</g>
</g>
</svg>
