<svg xmlns="http://www.w3.org/2000/svg" id="comicsIcon" class="rightNavSVG" viewBox="0 0 216 216"><style type="text/css">  
	.st0{fill:none;}
	.st1{fill:#00A4B3;}
</style><rect id="comicsemptyContainer" y="-2.5" class="st0" width="216" height="216"/><path class="st0" d="M108 39.3c-3.6-3.9-18.9-13.7-77.6 1.4v149.7c54.7-10.7 71.6-5.2 76.6-1.9h2c5-3.3 22-8.8 76.6 1.9V40.8C126.9 25.6 111.6 35.4 108 39.3z"/><g><path class="st1" d="M177.3 101.1c-0.1 0-0.1 0-0.2 0 -50.8-10.2-61-3.3-61.1-3.2 -0.3 0.2-0.8 0.3-1.2 0.1 -0.4-0.2-0.6-0.6-0.6-1V52.8c0-0.2 0.1-0.4 0.2-0.6 0.3-0.5 8.1-12.1 63.2 0.7 0.5 0.1 0.9 0.6 0.9 1.1v45.9c0 0.3-0.2 0.7-0.4 0.9C177.8 101 177.6 101.1 177.3 101.1zM132.1 93.2c9.3 0 23.3 1.2 44.2 5.3V55c-48-11.1-58.4-3.1-59.8-1.7v42C118.7 94.3 123.3 93.2 132.1 93.2z"/><path class="st1" d="M38.7 88.1c-0.3 0-0.5-0.1-0.7-0.3 -0.3-0.2-0.4-0.5-0.4-0.9V54.1c0-0.5 0.4-1 0.9-1.1 55-12.9 62.8-1.2 63.1-0.7 0.1 0.2 0.2 0.4 0.2 0.6V84c0 0.4-0.2 0.8-0.6 1s-0.8 0.1-1.2-0.1c-0.1-0.1-10.3-6.9-61 3.2C38.9 88.1 38.8 88.1 38.7 88.1zM39.9 55v30.6c40.4-8 55.1-5.1 59.7-3.4v-29C98.2 51.9 87.8 43.8 39.9 55z"/><path class="st1" d="M38.7 141.9c-0.3 0-0.5-0.1-0.7-0.2 -0.3-0.2-0.4-0.5-0.4-0.9V93.1c0-0.5 0.4-1 0.9-1.1 6-1.3 11.7-2.5 17-3.4 0.3-0.1 0.7 0 0.9 0.2 0.3 0.2 0.4 0.5 0.4 0.9v47.4c0 0.5-0.4 1-0.9 1.1 -5.3 1-10.9 2.2-16.9 3.6C38.9 141.8 38.8 141.9 38.7 141.9zM39.9 94v45.3c5.1-1.2 10-2.2 14.7-3.1V91.1C49.9 91.9 45 92.9 39.9 94z"/><path class="st1" d="M115.3 175.7c-0.2 0-0.3 0-0.4-0.1 -0.4-0.2-0.7-0.6-0.7-1v-40.3c0-0.4 0.2-0.8 0.6-1 0.2-0.1 5.5-2.9 20.1-2.3 0.6 0 1.1 0.5 1.1 1.1v39.3c0 0.3-0.1 0.6-0.3 0.8s-0.5 0.3-0.8 0.3c-15-0.4-18.7 2.8-18.7 2.9C115.9 175.6 115.6 175.7 115.3 175.7zM116.4 135.1v37.6c2.4-1.1 7.4-2.5 17.3-2.4v-37C123.2 132.9 118 134.5 116.4 135.1z"/><path class="st1" d="M177.3 178.8c-0.1 0-0.2 0-0.2 0 -14.9-3.3-27.7-5.4-38-6 -0.6 0-1.1-0.5-1.1-1.1v-39.2c0-0.3 0.1-0.6 0.4-0.8 0.2-0.2 0.5-0.3 0.8-0.3 10.9 0.8 23.8 3.2 38.4 7 0.5 0.1 0.8 0.6 0.8 1.1v38.3c0 0.3-0.2 0.7-0.4 0.9C177.8 178.7 177.6 178.8 177.3 178.8zM140.3 170.6c10 0.7 22 2.6 35.9 5.7v-36c-13.6-3.5-25.7-5.7-35.9-6.6L140.3 170.6 140.3 170.6z"/><path class="st1" d="M156.6 130.5c-0.1 0-0.1 0-0.2 0 -33.6-5.9-40.3-0.6-40.4-0.5 -0.3 0.3-0.8 0.4-1.2 0.2 -0.4-0.2-0.7-0.6-0.7-1v-25.3c0-0.1 0-0.3 0.1-0.4 0.4-0.9 4.6-8.6 42.6-2.5 0.5 0.1 0.9 0.6 0.9 1.1v27.3c0 0.3-0.1 0.6-0.4 0.9C157.2 130.5 156.9 130.5 156.6 130.5zM129.7 125.5c6 0 14.4 0.7 25.8 2.6v-25c-32.1-5.1-38.3 0.2-39.1 1.1v23.1C118.5 126.5 122.4 125.5 129.7 125.5z"/><path class="st1" d="M177.3 134.9c-0.1 0-0.2 0-0.3 0 -5.7-1.4-11.2-2.5-16.3-3.5 -0.5-0.1-0.9-0.6-0.9-1.1v-27.4c0-0.3 0.1-0.6 0.4-0.9s0.6-0.3 0.9-0.2c5.1 0.9 10.6 2 16.4 3.3 0.5 0.1 0.9 0.6 0.9 1.1v27.6c0 0.3-0.2 0.7-0.4 0.9C177.8 134.8 177.6 134.9 177.3 134.9zM162.1 129.3c4.5 0.9 9.2 1.9 14.1 3V107c-4.9-1.1-9.7-2.1-14.1-2.9V129.3z"/><path class="st1" d="M38.7 178.8c-0.3 0-0.5-0.1-0.7-0.2 -0.3-0.2-0.4-0.5-0.4-0.9v-31.3c0-0.5 0.3-1 0.8-1.1 10.3-2.7 19.9-4.7 28.5-5.9 0.3 0 0.6 0.1 0.9 0.3 0.2 0.2 0.4 0.5 0.4 0.8v32.1c0 0.6-0.4 1-1 1.1 -8.3 1-17.8 2.7-28.3 5.1C38.9 178.7 38.8 178.8 38.7 178.8zM39.9 147.2v29c9.6-2.1 18.4-3.7 26.2-4.7v-29.8C58.1 142.9 49.3 144.8 39.9 147.2z"/><path class="st1" d="M100.6 175.8c-0.3 0-0.6-0.1-0.8-0.3 0 0-5.2-4.5-28.3-2.3 -0.3 0-0.6-0.1-0.9-0.3s-0.4-0.5-0.4-0.8V140c0-0.6 0.4-1.1 1-1.1 22.1-2.5 29.5 1.4 29.8 1.6 0.4 0.2 0.6 0.6 0.6 1v33.3c0 0.5-0.3 0.9-0.7 1C100.9 175.7 100.8 175.8 100.6 175.8zM83.5 170.3c9 0 13.7 1.3 16 2.4v-30.5c-2-0.8-9.7-3-26.9-1.2v29.9C76.8 170.4 80.4 170.3 83.5 170.3z"/><path class="st1" d="M60 137.4c-0.3 0-0.5-0.1-0.7-0.3 -0.3-0.2-0.4-0.5-0.4-0.9V89c0-0.6 0.4-1 0.9-1.1 7-1.1 13.3-1.8 18.8-2.1 0.3 0 0.6 0.1 0.8 0.3 0.2 0.2 0.4 0.5 0.4 0.8v47c0 0.6-0.5 1.1-1 1.1 -5.5 0.4-11.7 1.2-18.6 2.4C60.1 137.4 60 137.4 60 137.4zM61.1 89.9v45c6-1 11.5-1.7 16.4-2.1V88.1C72.7 88.4 67.1 89 61.1 89.9z"/><path class="st1" d="M100.6 136.3c-0.2 0-0.4-0.1-0.6-0.2 0 0-3.4-1.8-17-1.3 -0.3 0-0.6-0.1-0.8-0.3 -0.2-0.2-0.3-0.5-0.3-0.8v-47c0-0.6 0.5-1.1 1.1-1.1 15.9-0.2 18.3 3.1 18.7 3.7 0.1 0.2 0.1 0.3 0.1 0.5v45.3c0 0.4-0.2 0.8-0.6 1C101 136.3 100.8 136.3 100.6 136.3zM87.4 132.5c6.6 0 10.2 0.6 12.1 1.1V90.3c-0.7-0.6-4-2.4-15.4-2.4v44.7C85.3 132.5 86.4 132.5 87.4 132.5z"/></g><g><path class="st0" d="M83.6 184.2c0.6 0 1.2 0 1.7 0C84.7 184.2 84.1 184.2 83.6 184.2z"/><path class="st0" d="M93.9 184.7c-0.4-0.1-0.9-0.1-1.4-0.1 0.1 0 0.2 0 0.3 0C93.2 184.7 93.6 184.7 93.9 184.7z"/><path class="st0" d="M82 184.2c0.2 0 0.5 0 0.7 0C82.5 184.1 82.2 184.2 82 184.2z"/><path class="st0" d="M86.2 184.2c0.5 0 1 0 1.4 0C87.2 184.2 86.7 184.2 86.2 184.2z"/><path class="st0" d="M89.9 184.4c-0.6 0-1.1-0.1-1.7-0.1 0.1 0 0.3 0 0.4 0C89.1 184.3 89.5 184.3 89.9 184.4z"/><path class="st0" d="M90.8 184.4c0.4 0 0.8 0.1 1.2 0.1C91.6 184.5 91.2 184.5 90.8 184.4z"/><path class="st0" d="M95.7 185c0.2 0 0.4 0.1 0.5 0.1 -0.5-0.1-1.1-0.2-1.6-0.2l0 0C95 184.9 95.4 184.9 95.7 185z"/><path class="st0" d="M101.2 186.1c0.2 0.1 0.5 0.1 0.7 0.2 0.2 0 0.3 0.1 0.5 0.1 0.2 0.1 0.4 0.1 0.6 0.2 0.1 0 0.3 0.1 0.4 0.1 -1-0.4-2.2-0.7-3.6-1 0.3 0.1 0.6 0.1 0.9 0.2C100.9 186 101 186 101.2 186.1z"/><path class="st0" d="M103.4 186.8c0.2 0.1 0.4 0.1 0.5 0.2C103.7 186.9 103.6 186.9 103.4 186.8z"/><path class="st0" d="M96.4 185.1c0.4 0.1 0.7 0.1 1.1 0.2C97.1 185.2 96.8 185.1 96.4 185.1z"/><path class="st0" d="M104.8 187.3c-0.2-0.1-0.5-0.2-0.7-0.3 0.1 0 0.2 0.1 0.3 0.1C104.5 187.2 104.6 187.3 104.8 187.3z"/><path class="st0" d="M99.4 185.6c-0.5-0.1-1-0.2-1.6-0.3 0.1 0 0.1 0 0.2 0C98.5 185.4 98.9 185.5 99.4 185.6z"/><path class="st0" d="M52.3 186.7c0.5-0.1 1-0.1 1.5-0.2C53.3 186.5 52.8 186.6 52.3 186.7z"/><path class="st0" d="M49.9 187c-1.3 0.2-2.5 0.4-3.9 0.6 0.7-0.1 1.5-0.2 2.2-0.3C48.8 187.2 49.4 187.1 49.9 187z"/><path class="st0" d="M79.3 184.2c0.3 0 0.6 0 0.9 0C80 184.2 79.7 184.2 79.3 184.2z"/><path class="st0" d="M36.6 189.3c1-0.2 2-0.4 3-0.5 0.6-0.1 1.2-0.2 1.7-0.3 -2 0.4-4.1 0.7-6.3 1.1l0 0C35.6 189.4 36.1 189.3 36.6 189.3z"/><path class="st0" d="M22.7 198.7c1.5-0.3 3-0.5 4.4-0.8 0.2 0 0.4-0.1 0.7-0.1 1.4-0.2 2.7-0.5 4.1-0.7 0.2 0 0.5-0.1 0.7-0.1 1.3-0.2 2.6-0.4 3.9-0.6 0.2 0 0.4-0.1 0.6-0.1 1.3-0.2 2.6-0.4 3.9-0.6h0.1c1.3-0.2 2.5-0.4 3.8-0.5 0.2 0 0.4-0.1 0.6-0.1 1.2-0.2 2.3-0.3 3.5-0.4 0.2 0 0.4-0.1 0.6-0.1 1.1-0.1 2.3-0.3 3.4-0.4 0.1 0 0.3 0 0.4 0 1.1-0.1 2.2-0.2 3.2-0.4 0.1 0 0.1 0 0.2 0 1.1-0.1 2.1-0.2 3.1-0.3 0.2 0 0.3 0 0.5 0 1-0.1 2-0.2 2.9-0.3 0.2 0 0.3 0 0.5 0 1-0.1 1.9-0.1 2.8-0.2 0.1 0 0.2 0 0.3 0 0.9-0.1 1.8-0.1 2.7-0.2 0.1 0 0.1 0 0.2 0 0.9 0 1.7-0.1 2.6-0.1 0.1 0 0.3 0 0.4 0 0.8 0 1.6-0.1 2.4-0.1 0.1 0 0.3 0 0.4 0 0.8 0 1.6 0 2.3-0.1 0.1 0 0.1 0 0.2 0 0.7 0 1.4 0 2.1 0 0.1 0 0.1 0 0.2 0 0 0 0 0 0.1 0 1 0 2 0 2.9 0h0.1c0.9 0 1.7 0 2.6 0.1 0.1 0 0.2 0 0.3 0 0.8 0 1.6 0.1 2.3 0.1 0.1 0 0.2 0 0.2 0 0.8 0.1 1.5 0.1 2.2 0.2h0.1c0.7 0.1 1.4 0.1 2.1 0.2h0.1c0.6 0.1 1.2 0.2 1.8 0.2 0.1 0 0.1 0 0.2 0 0.6 0.1 1.1 0.2 1.6 0.3 0.1 0 0.1 0 0.2 0 0.5 0.1 1.1 0.2 1.5 0.3 0 0 0 0 0.1 0 0.5 0.1 1 0.2 1.4 0.3h0.1c0.4 0.1 0.8 0.2 1.2 0.3h0.1c0.4 0.1 0.7 0.2 1.1 0.3h0.1c0.4 0.1 0.7 0.2 1 0.4l0 0c0.3 0.1 0.6 0.2 0.9 0.4 0 0 0 0 0.1 0 0.3 0.1 0.5 0.2 0.7 0.3h0.1c0.2 0.1 0.4 0.2 0.6 0.3 0 0 0 0 0.1 0 0.2 0.1 0.4 0.2 0.6 0.3h2c0.2-0.1 0.4-0.2 0.6-0.3 0 0 0 0 0.1 0 0.2-0.1 0.4-0.2 0.6-0.3 0 0 0 0 0.1 0 0.2-0.1 0.5-0.2 0.8-0.3 0 0 0 0 0.1 0 0.3-0.1 0.6-0.2 0.9-0.4l0 0c0.3-0.1 0.7-0.2 1-0.4h0.1c0.3-0.1 0.7-0.2 1.1-0.3h0.1c0.4-0.1 0.8-0.2 1.3-0.3h0.1c0.5-0.1 1-0.2 1.5-0.3l0 0c0.5-0.1 1-0.2 1.6-0.3h0.1c0.5-0.1 1.1-0.2 1.7-0.3 0.1 0 0.1 0 0.2 0 0.6-0.1 1.2-0.2 1.9-0.2h0.1c0.7-0.1 1.4-0.2 2.1-0.2h0.1c0.7-0.1 1.5-0.1 2.2-0.2 0.1 0 0.1 0 0.2 0 0.7 0 1.5-0.1 2.3-0.1 0.1 0 0.2 0 0.2 0 0.8 0 1.7-0.1 2.6-0.1h0.1c0.9 0 1.9 0 2.9 0 0 0 0 0 0.1 0s0.1 0 0.2 0c0.7 0 1.4 0 2.1 0 0.1 0 0.1 0 0.2 0 0.7 0 1.5 0 2.3 0.1 0.1 0 0.3 0 0.4 0 0.8 0 1.6 0.1 2.4 0.1 0.1 0 0.3 0 0.4 0 0.8 0 1.7 0.1 2.6 0.1 0.1 0 0.1 0 0.2 0 0.9 0 1.7 0.1 2.6 0.2 0.1 0 0.2 0 0.3 0 0.9 0.1 1.8 0.1 2.8 0.2 0.2 0 0.3 0 0.5 0 0.9 0.1 1.9 0.2 2.9 0.2 0.2 0 0.4 0 0.5 0 1 0.1 2 0.2 3.1 0.3 0.1 0 0.2 0 0.2 0 1 0.1 2.1 0.2 3.2 0.3 0.2 0 0.3 0 0.5 0.1 1.1 0.1 2.2 0.3 3.3 0.4 0.2 0 0.4 0.1 0.7 0.1 1.1 0.1 2.3 0.3 3.4 0.4 0.2 0 0.4 0.1 0.6 0.1 1.2 0.2 2.5 0.3 3.8 0.5h0.1c1.3 0.2 2.6 0.4 3.9 0.6 0.2 0 0.4 0.1 0.6 0.1 1.3 0.2 2.6 0.4 3.9 0.6 0.3 0 0.5 0.1 0.8 0.1 1.3 0.2 2.7 0.4 4.1 0.7 0.2 0 0.4 0.1 0.7 0.1 1.5 0.2 2.9 0.5 4.4 0.8V57.1 49c-1.4-0.3-2.9-0.7-4.2-1 -0.1 0-0.1 0-0.2 0 -0.1 0-0.1 0-0.2 0v142.5c0 0.9-0.4 1.7-1.1 2.3 -0.5 0.4-1.2 0.7-1.9 0.7 -0.2 0-0.4 0-0.6-0.1 -21.1-4.1-38.6-6.2-51.9-6.2 -14.4 0-20.3 2.4-22.5 3.9 -0.5 0.3-1.1 0.5-1.7 0.5h-2c-0.6 0-1.2-0.2-1.7-0.5 -2.2-1.5-8.1-3.9-22.5-3.9 -13.3 0-30.8 2.1-51.9 6.2 -0.2 0-0.4 0.1-0.6 0.1 -0.7 0-1.4-0.2-1.9-0.7 -0.7-0.6-1.1-1.4-1.1-2.3V47.9c-0.1 0-0.1 0-0.2 0S27 47.9 27 48c-1.4 0.3-2.8 0.6-4.2 1v8.1L22.7 198.7 22.7 198.7z"/><path class="st0" d="M44 188c0.6-0.1 1.2-0.2 1.7-0.3C45.2 187.8 44.6 187.9 44 188z"/><path class="st0" d="M57.6 186c0.9-0.1 1.8-0.2 2.6-0.3 -1.9 0.2-3.9 0.5-6 0.8 0.7-0.1 1.4-0.2 2-0.3C56.7 186.1 57.2 186 57.6 186z"/><path class="st0" d="M69 184.8c0.6-0.1 1.3-0.1 1.9-0.2 0.4 0 0.8-0.1 1.2-0.1 0.6 0 1.2-0.1 1.7-0.1 0.4 0 0.8 0 1.2-0.1 -2.7 0.1-5.6 0.4-8.7 0.6 0.5 0 1-0.1 1.5-0.1C68.2 184.8 68.6 184.8 69 184.8z"/><path class="st0" d="M76.6 184.3c0.4 0 0.7 0 1.1 0C77.4 184.3 77 184.3 76.6 184.3z"/><path class="st0" d="M64.6 185.2c0.3 0 0.6-0.1 0.9-0.1C65.2 185.1 64.9 185.1 64.6 185.2z"/><path class="st0" d="M60.3 185.6c0.3 0 0.6-0.1 0.8-0.1C60.9 185.6 60.6 185.6 60.3 185.6z"/><path class="st0" d="M120.2 185c-0.6 0.1-1.2 0.2-1.8 0.3 0.4-0.1 0.8-0.1 1.2-0.2C119.8 185 120 185 120.2 185z"/><path class="st0" d="M132.4 184.2c-0.7 0-1.5 0-2.2 0 0.1 0 0.3 0 0.4 0C131.3 184.2 131.9 184.2 132.4 184.2z"/><path class="st0" d="M143.9 184.5c0.4 0 0.8 0.1 1.2 0.1 -1.4-0.1-2.8-0.2-4.1-0.3 0.4 0 0.8 0 1.1 0.1C142.7 184.5 143.3 184.5 143.9 184.5z"/><path class="st0" d="M136.7 184.2c-0.3 0-0.6 0-0.9 0C136 184.2 136.3 184.2 136.7 184.2 136.6 184.2 136.6 184.2 136.7 184.2z"/><path class="st0" d="M148.2 184.9c0.8 0.1 1.6 0.1 2.4 0.2 0.3 0 0.6 0.1 0.8 0.1 1.1 0.1 2.2 0.2 3.4 0.4 0.2 0 0.5 0.1 0.8 0.1 -3.3-0.4-6.4-0.7-9.3-0.9 0.3 0 0.5 0 0.7 0.1C147.4 184.8 147.8 184.8 148.2 184.9z"/><path class="st0" d="M133.3 184.1c0.2 0 0.5 0 0.7 0C133.8 184.2 133.5 184.1 133.3 184.1z"/><path class="st0" d="M139.9 184.3c-0.6 0-1.1-0.1-1.7-0.1 0.3 0 0.7 0 1.1 0C139.5 184.3 139.7 184.3 139.9 184.3z"/><path class="st0" d="M159.7 186.1c0.8 0.1 1.6 0.2 2.5 0.3 0.5 0.1 1 0.1 1.5 0.2 0.1 0 0.2 0 0.3 0 -2.6-0.4-5.2-0.7-7.6-1 0.7 0.1 1.3 0.2 2 0.2C158.8 186 159.3 186.1 159.7 186.1z"/><path class="st0" d="M180.9 189.5c-0.5-0.1-1-0.2-1.5-0.3C179.9 189.4 180.4 189.4 180.9 189.5L180.9 189.5z"/><path class="st0" d="M178.5 189.1c-1.3-0.2-2.6-0.5-3.8-0.7 0.6 0.1 1.1 0.2 1.7 0.3C177 188.8 177.7 189 178.5 189.1z"/><path class="st0" d="M166.1 187c0.5 0.1 1.1 0.2 1.6 0.2C167.2 187.2 166.6 187.1 166.1 187z"/><path class="st0" d="M170.2 187.7c0.6 0.1 1.1 0.2 1.7 0.3C171.4 187.9 170.8 187.8 170.2 187.7z"/><path class="st0" d="M118.4 185.3c-0.6 0.1-1.2 0.2-1.8 0.4 0.5-0.1 0.9-0.2 1.4-0.3C118.2 185.3 118.3 185.3 118.4 185.3z"/><path class="st0" d="M128.3 184.2c0.5 0 1 0 1.4 0C129.3 184.2 128.8 184.2 128.3 184.2z"/><path class="st0" d="M110.9 187.5c-0.2 0.1-0.4 0.2-0.6 0.3 0 0 0.1 0 0.1-0.1C110.6 187.6 110.7 187.6 110.9 187.5z"/><path class="st0" d="M114.1 186.3c0.2-0.1 0.5-0.1 0.8-0.2C114.6 186.1 114.4 186.2 114.1 186.3z"/><path class="st0" d="M109 188.5c0.2-0.1 0.3-0.2 0.5-0.3C109.3 188.3 109.2 188.4 109 188.5z"/><path class="st0" d="M110.2 187.9c-0.2 0.1-0.4 0.2-0.6 0.3 0.1 0 0.1-0.1 0.2-0.1C109.9 188 110 187.9 110.2 187.9z"/><path class="st0" d="M111.7 187.1c0.1 0 0.2-0.1 0.4-0.1 0.2-0.1 0.4-0.1 0.6-0.2 0.1 0 0.3-0.1 0.4-0.1 0.2-0.1 0.4-0.1 0.6-0.2 -1 0.3-1.8 0.6-2.5 0.9l0 0C111.4 187.3 111.5 187.2 111.7 187.1z"/><path class="st0" d="M126.1 184.4c0.4 0 0.9-0.1 1.3-0.1 0.3 0 0.6 0 0.8 0 -1.5 0.1-2.9 0.2-4.2 0.3 0.4 0 0.8-0.1 1.2-0.1C125.5 184.4 125.8 184.4 126.1 184.4z"/><path class="st0" d="M122.1 184.7c0.4 0 0.7-0.1 1.1-0.1C122.8 184.7 122.4 184.7 122.1 184.7z"/><path class="st0" d="M121.7 184.8c-0.5 0.1-1 0.1-1.4 0.2 0.4-0.1 0.7-0.1 1.1-0.2C121.4 184.8 121.5 184.8 121.7 184.8z"/><path class="st0" d="M105.6 187.7c0.1 0 0.2 0.1 0.3 0.1 0.2 0.1 0.3 0.2 0.4 0.2s0.1 0.1 0.2 0.1c0.2 0.1 0.4 0.2 0.5 0.3 -0.5-0.3-1.2-0.7-2-1.1 0 0 0.1 0 0.1 0.1C105.3 187.6 105.4 187.6 105.6 187.7z"/><path class="st0" d="M116.4 185.7c-0.4 0.1-0.8 0.2-1.1 0.3 0.3-0.1 0.7-0.2 1-0.2C116.4 185.7 116.4 185.7 116.4 185.7z"/></g><g><path class="st0" d="M196.3 57.8v140.9c0 0.9-0.4 1.7-1.1 2.3 -0.5 0.5-1.2 0.7-1.9 0.7 -0.2 0-0.4 0-0.5 0 -23.2-4.1-42.4-6.2-57.1-6.2 -16.2 0-22.7 2.5-25.1 4 -0.5 0.3-1 0.5-1.6 0.5h-2c-0.6 0-1.1-0.2-1.6-0.5 -2.4-1.5-8.9-4-25.1-4 -14.7 0-33.9 2.1-57.1 6.2 -0.2 0-0.4 0-0.5 0 -0.7 0-1.4-0.2-1.9-0.7 -0.7-0.6-1.1-1.4-1.1-2.3V57.8l0 0c-1.5 0.3-2.9 0.6-4.5 0.9v148.2c1.6-0.3 3.2-0.5 4.8-0.8 0.2 0 0.5-0.1 0.7-0.1 1.5-0.2 3-0.5 4.4-0.7 0.3 0 0.6-0.1 0.8-0.1 1.5-0.2 2.9-0.4 4.3-0.6 0.2 0 0.4 0 0.5-0.1 1.4-0.2 2.7-0.4 4-0.5 0.1 0 0.3 0 0.4-0.1 1.4-0.2 2.7-0.3 4-0.5 0.2 0 0.5-0.1 0.7-0.1 1.3-0.2 2.5-0.3 3.7-0.4 0.2 0 0.4 0 0.7-0.1 1.3-0.1 2.5-0.3 3.7-0.4 0.1 0 0.2 0 0.2 0 1.2-0.1 2.3-0.2 3.4-0.3 0.2 0 0.3 0 0.5 0 1.1-0.1 2.2-0.2 3.3-0.3 0.2 0 0.4 0 0.6-0.1 1.1-0.1 2.1-0.2 3.1-0.2 0.2 0 0.3 0 0.5 0 1-0.1 2.1-0.1 3.1-0.2h0.1c1-0.1 2-0.1 3-0.2 0.2 0 0.3 0 0.5 0 0.9 0 1.8-0.1 2.7-0.1 0.2 0 0.3 0 0.5 0 0.9 0 1.8-0.1 2.6-0.1 0.1 0 0.2 0 0.3 0 0.8 0 1.6 0 2.4 0 0.1 0 0.2 0 0.3 0 0.8 0 1.6 0 2.3 0 0.1 0 0.2 0 0.2 0 0.1 0 0.2 0 0.3 0 0.3 0 0.6 0 1 0 0.2 0 0.4 0 0.6 0 0.3 0 0.7 0 1 0 0.2 0 0.4 0 0.5 0 0.4 0 0.8 0 1.3 0 0.1 0 0.2 0 0.3 0 0.5 0 0.9 0 1.4 0 0.2 0 0.3 0 0.5 0 0.3 0 0.6 0 0.9 0 0.2 0 0.3 0 0.5 0 0.3 0 0.5 0 0.8 0 0.2 0 0.4 0 0.5 0 0.3 0 0.5 0 0.8 0.1 0.2 0 0.3 0 0.5 0s0.5 0 0.7 0.1c0.2 0 0.3 0 0.5 0s0.5 0 0.7 0.1c0.1 0 0.3 0 0.4 0 0.3 0 0.6 0.1 0.8 0.1 0.1 0 0.2 0 0.3 0 0.4 0 0.7 0.1 1 0.1 0.1 0 0.2 0 0.3 0 0.2 0 0.5 0.1 0.7 0.1 0.1 0 0.3 0 0.4 0.1 0.2 0 0.4 0.1 0.6 0.1 0.1 0 0.3 0 0.4 0.1 0.2 0 0.4 0.1 0.5 0.1s0.3 0 0.4 0.1c0.2 0 0.3 0.1 0.5 0.1 0.1 0 0.3 0 0.4 0.1 0.2 0 0.3 0.1 0.5 0.1 0.1 0 0.2 0 0.3 0.1 0.2 0 0.4 0.1 0.5 0.1s0.2 0 0.2 0.1c0.3 0.1 0.5 0.1 0.7 0.2 0.1 0 0.2 0 0.2 0.1 0.2 0 0.3 0.1 0.5 0.1 0.1 0 0.2 0 0.3 0.1 0.1 0 0.3 0.1 0.4 0.1s0.2 0 0.3 0.1c0.1 0 0.2 0.1 0.4 0.1 0.1 0 0.2 0.1 0.3 0.1 0.1 0 0.2 0.1 0.3 0.1 0.1 0 0.2 0.1 0.2 0.1 0.1 0 0.2 0.1 0.3 0.1 0.1 0 0.1 0 0.2 0.1 0.1 0 0.2 0.1 0.3 0.1 0.1 0 0.1 0 0.2 0.1 0.2 0.1 0.3 0.1 0.5 0.2h0.1c0.1 0 0.2 0.1 0.3 0.1 0.1 0 0.1 0 0.2 0.1 0.1 0 0.2 0.1 0.3 0.1 0.1 0 0.1 0 0.2 0.1 0.1 0 0.2 0.1 0.2 0.1 0.1 0 0.1 0 0.2 0.1 0.1 0 0.1 0.1 0.2 0.1 0 0 0.1 0 0.1 0.1 0.1 0 0.1 0.1 0.2 0.1 0 0 0.1 0 0.1 0.1 0.1 0 0.1 0.1 0.2 0.1 0 0 0.1 0 0.1 0.1 0.1 0.1 0.2 0.1 0.3 0.2h2c0.1-0.1 0.2-0.1 0.3-0.2 0 0 0.1 0 0.1-0.1 0.1 0 0.1-0.1 0.2-0.1 0 0 0.1 0 0.1-0.1 0.1 0 0.1-0.1 0.2-0.1 0 0 0.1 0 0.1-0.1 0.1 0 0.2-0.1 0.2-0.1s0.1 0 0.1-0.1c0.1 0 0.2-0.1 0.3-0.1 0.1 0 0.1 0 0.2-0.1 0.1 0 0.2-0.1 0.3-0.1 0 0 0.1 0 0.1-0.1 0.3-0.1 0.6-0.2 1-0.4h0.1c0.1-0.1 0.3-0.1 0.4-0.2 0.1 0 0.1 0 0.2-0.1 0.1 0 0.3-0.1 0.4-0.1s0.1 0 0.2-0.1c0.1 0 0.3-0.1 0.4-0.1s0.1 0 0.2-0.1c0.1 0 0.3-0.1 0.4-0.1s0.1 0 0.2-0.1c0.2 0 0.3-0.1 0.5-0.1 0.1 0 0.1 0 0.2 0 0.2-0.1 0.5-0.1 0.7-0.2l0 0c0.3-0.1 0.5-0.1 0.8-0.2l0 0c0.2-0.1 0.5-0.1 0.8-0.2 0.1 0 0.1 0 0.2 0 0.2 0 0.4-0.1 0.6-0.1 0.1 0 0.2 0 0.3 0 0.2 0 0.4-0.1 0.6-0.1 0.1 0 0.2 0 0.3 0 0.2 0 0.4-0.1 0.6-0.1 0.1 0 0.2 0 0.3 0 0.2 0 0.5-0.1 0.7-0.1 0.1 0 0.2 0 0.3 0 0.3 0 0.6-0.1 0.8-0.1 0.1 0 0.1 0 0.2 0 0.4 0 0.7-0.1 1.1-0.1l0 0c0.4 0 0.7-0.1 1.1-0.1 0.1 0 0.2 0 0.3 0 0.3 0 0.5-0.1 0.8-0.1 0.1 0 0.3 0 0.4 0 0.3 0 0.5 0 0.8-0.1 0.2 0 0.3 0 0.5 0 0.3 0 0.5 0 0.8-0.1 0.2 0 0.3 0 0.5 0 0.3 0 0.6 0 0.8 0s0.3 0 0.5 0c0.3 0 0.6 0 0.9 0 0.1 0 0.3 0 0.4 0 0.5 0 0.9 0 1.4 0h0.1c0.4 0 0.9 0 1.4 0 0.2 0 0.3 0 0.5 0 0.3 0 0.7 0 1 0 0.2 0 0.4 0 0.6 0 0.3 0 0.6 0 1 0 0.1 0 0.2 0 0.3 0s0.2 0 0.2 0c0.8 0 1.5 0 2.3 0 0.1 0 0.2 0 0.3 0 0.8 0 1.6 0 2.4 0 0.1 0 0.2 0 0.3 0 0.8 0 1.7 0.1 2.6 0.1 0.2 0 0.3 0 0.5 0 0.9 0 1.8 0.1 2.7 0.1 0.2 0 0.3 0 0.5 0 1 0.1 1.9 0.1 2.9 0.2 0.1 0 0.1 0 0.2 0 1 0.1 2 0.1 3 0.2 0.2 0 0.3 0 0.5 0 1 0.1 2.1 0.2 3.1 0.2 0.2 0 0.4 0 0.7 0.1 1.1 0.1 2.2 0.2 3.3 0.3 0.2 0 0.4 0 0.5 0.1 1.1 0.1 2.2 0.2 3.4 0.3 0.1 0 0.2 0 0.3 0 1.2 0.1 2.4 0.3 3.6 0.4 0.2 0 0.5 0.1 0.7 0.1 1.2 0.1 2.4 0.3 3.7 0.4 0.2 0 0.5 0.1 0.7 0.1 1.3 0.2 2.6 0.3 4 0.5 0.1 0 0.3 0 0.4 0.1 1.3 0.2 2.6 0.4 4 0.5 0.2 0 0.4 0.1 0.6 0.1 1.4 0.2 2.8 0.4 4.3 0.6 0.3 0 0.6 0.1 0.8 0.1 1.4 0.2 2.9 0.4 4.4 0.7 0.2 0 0.5 0.1 0.8 0.1 1.6 0.2 3.2 0.5 4.8 0.8V58.7C199.2 58.4 197.8 58.1 196.3 57.8L196.3 57.8z"/></g><path class="st1" d="M201.8 53.8c-1.2-0.2-2.3-0.5-3.5-0.7v-4c0-2.3-1.6-4.3-3.9-4.9 -1.3-0.3-2.5-0.6-3.8-0.9v-2.5c0-2.3-1.5-4.3-3.8-4.8 -21.5-5.5-39.4-8.3-53.4-8.3 -11.3 0-19.9 1.8-25.5 5.3 -5.6-3.5-14.2-5.3-25.5-5.3 -13.9 0-31.9 2.8-53.4 8.3 -2.2 0.6-3.8 2.6-3.8 4.8v2.5c-1.3 0.3-2.5 0.6-3.8 0.9 -2.3 0.5-3.9 2.5-3.9 4.9v4c-1.2 0.2-2.3 0.5-3.5 0.7 -2.3 0.5-4 2.5-4 4.9v148.2c0 1.5 0.6 2.9 1.8 3.8 0.9 0.8 2.1 1.2 3.2 1.2 0.3 0 0.5 0 0.8-0.1 25.1-4.1 45.9-6.2 61.8-6.2 18.1 0 24.7 2.7 26.6 3.9 0.8 0.5 1.7 0.7 2.5 0.7h2c0.9 0 1.8-0.2 2.5-0.7 2-1.2 8.5-3.9 26.6-3.9 15.9 0 36.6 2.1 61.8 6.2 0.3 0 0.5 0.1 0.8 0.1 1.2 0 2.3-0.4 3.2-1.2 1.1-1 1.8-2.3 1.8-3.8V58.7C205.8 56.3 204.1 54.3 201.8 53.8zM30.4 47.3v-3.1 -3.5c1.3-0.3 2.6-0.7 3.9-1 0.3-0.1 0.5-0.1 0.8-0.2 1.2-0.3 2.5-0.6 3.7-0.9 0.2-0.1 0.4-0.1 0.6-0.1 1.1-0.3 2.2-0.5 3.3-0.7 0.2 0 0.3-0.1 0.5-0.1 1.2-0.3 2.3-0.5 3.4-0.7 0.3-0.1 0.5-0.1 0.7-0.2 1.1-0.2 2.2-0.4 3.3-0.7 0.1 0 0.3 0 0.4-0.1 1-0.2 2-0.4 2.9-0.5 0.2 0 0.4-0.1 0.6-0.1 1-0.2 2-0.3 3-0.5 0.2 0 0.4-0.1 0.6-0.1 0.9-0.2 1.9-0.3 2.7-0.4 0.1 0 0.1 0 0.2 0 0.9-0.1 1.9-0.3 2.8-0.4 0.2 0 0.4-0.1 0.6-0.1 0.9-0.1 1.7-0.2 2.6-0.3 0.2 0 0.3 0 0.5-0.1 0.8-0.1 1.5-0.2 2.3-0.2 0.1 0 0.3 0 0.4 0 0.8-0.1 1.6-0.1 2.4-0.2 0.2 0 0.4 0 0.5 0 0.8-0.1 1.5-0.1 2.3-0.2 0.1 0 0.1 0 0.2 0 0.7 0 1.4-0.1 2.1-0.1 0.1 0 0.3 0 0.4 0 0.7 0 1.4 0 2-0.1 0.1 0 0.3 0 0.4 0 0.6 0 1.3 0 1.9 0h0.1l0 0c0.5 0 1 0 1.5 0 0.1 0 0.2 0 0.4 0 0.4 0 0.7 0 1 0 0.2 0 0.3 0 0.5 0 0.3 0 0.6 0 0.9 0 0.2 0 0.3 0 0.5 0 0.3 0 0.6 0 0.9 0.1 0.1 0 0.3 0 0.4 0 0.3 0 0.6 0 0.9 0.1 0.1 0 0.2 0 0.3 0 0.4 0 0.8 0.1 1.2 0.1h0.1c0.3 0 0.7 0.1 1 0.1 0.1 0 0.2 0 0.3 0 0.3 0 0.5 0.1 0.8 0.1 0.1 0 0.1 0 0.2 0h0.1c0.7 0.1 1.4 0.2 2 0.3 0 0 0 0 0.1 0l0 0c0.7 0.1 1.3 0.3 1.9 0.4h0.1c0.6 0.1 1.1 0.3 1.7 0.4 0 0 0 0 0.1 0 0 0 0 0 0.1 0 0.8 0.2 1.5 0.5 2.2 0.7l0 0 0 0c0.4 0.2 0.9 0.3 1.2 0.5h0.1c0.4 0.2 0.8 0.4 1.1 0.5l0 0 0 0c0.2 0.1 0.3 0.2 0.5 0.3l0 0 0 0c0.3 0.2 0.6 0.4 0.9 0.5l0 0 0 0c0.3 0.2 0.5 0.3 0.7 0.5l0 0c0.2 0.2 0.5 0.3 0.6 0.5l0 0 0 0 0.1 0.1v145.2c0 0.5 0.4 0.9 0.9 0.9s0.9-0.4 0.9-0.9V38.5c0 0 0 0 0.1 0l0.1-0.1c0.1-0.1 0.2-0.1 0.2-0.2 0 0 0 0 0.1-0.1s0.2-0.2 0.3-0.2l0.1-0.1c0.1-0.1 0.2-0.1 0.2-0.2 0 0 0.1-0.1 0.2-0.1 0.1-0.1 0.2-0.1 0.2-0.2 0.1 0 0.1-0.1 0.2-0.1 0.1-0.1 0.2-0.1 0.2-0.2 0.1 0 0.1-0.1 0.2-0.1 0.1-0.1 0.2-0.1 0.3-0.2 0.1 0 0.1-0.1 0.2-0.1 0.2-0.1 0.3-0.2 0.5-0.3 0.1 0 0.1-0.1 0.2-0.1 0.1-0.1 0.2-0.1 0.3-0.2 0.1 0 0.2-0.1 0.2-0.1 0.1-0.1 0.2-0.1 0.3-0.1 0.1 0 0.2-0.1 0.3-0.1 0.1 0 0.2-0.1 0.3-0.1 0.1 0 0.2-0.1 0.3-0.1 0.1-0.1 0.3-0.1 0.4-0.2 0.1 0 0.2-0.1 0.3-0.1 0.2-0.1 0.4-0.2 0.6-0.2 0.1 0 0.1 0 0.2-0.1 0.2-0.1 0.3-0.1 0.5-0.2 0.1 0 0.2-0.1 0.3-0.1 0.1 0 0.3-0.1 0.4-0.1s0.2-0.1 0.3-0.1c0.1 0 0.3-0.1 0.5-0.1 0.1 0 0.2-0.1 0.4-0.1 0.2 0 0.3-0.1 0.5-0.1 0.1 0 0.2-0.1 0.3-0.1 0.2-0.1 0.5-0.1 0.7-0.2 0.1 0 0.2 0 0.2-0.1 0.3-0.1 0.6-0.1 0.8-0.2 0.1 0 0.2 0 0.4-0.1 0.2 0 0.4-0.1 0.6-0.1 0.1 0 0.3 0 0.4-0.1 0.2 0 0.4-0.1 0.6-0.1 0.1 0 0.3 0 0.4-0.1 0.2 0 0.4-0.1 0.7-0.1 0.1 0 0.3 0 0.4-0.1 0.3 0 0.6-0.1 0.9-0.1 0.1 0 0.2 0 0.3 0 0.4 0 0.8-0.1 1.2-0.1 0.1 0 0.2 0 0.4 0 0.3 0 0.6 0 0.9-0.1 0.2 0 0.3 0 0.5 0 0.3 0 0.5 0 0.8 0 0.2 0 0.3 0 0.5 0 0.3 0 0.6 0 0.9 0 0.2 0 0.3 0 0.5 0 0.3 0 0.7 0 1 0 0.1 0 0.3 0 0.4 0 0.5 0 1 0 1.5 0l0 0h0.1c0.6 0 1.2 0 1.9 0 0.1 0 0.3 0 0.4 0 0.7 0 1.4 0 2 0.1 0.1 0 0.3 0 0.4 0 0.7 0 1.4 0.1 2.1 0.1 0.1 0 0.1 0 0.2 0 0.8 0 1.5 0.1 2.3 0.2 0.2 0 0.3 0 0.5 0 0.8 0.1 1.6 0.1 2.4 0.2 0.1 0 0.2 0 0.4 0 0.8 0.1 1.6 0.2 2.3 0.3 0.1 0 0.3 0 0.4 0 0.9 0.1 1.7 0.2 2.6 0.3 0.2 0 0.4 0 0.6 0.1 0.9 0.1 1.9 0.3 2.8 0.4h0.1c0.9 0.1 1.9 0.3 2.9 0.4 0.2 0 0.4 0.1 0.6 0.1 1 0.2 2 0.3 3 0.5 0.2 0 0.4 0.1 0.6 0.1 1 0.2 2 0.4 3 0.6 0.1 0 0.2 0 0.3 0.1 1.1 0.2 2.2 0.4 3.3 0.7 0.2 0 0.5 0.1 0.7 0.1 1.1 0.2 2.3 0.5 3.4 0.7 0.1 0 0.3 0.1 0.4 0.1 1.1 0.2 2.2 0.5 3.3 0.8 0.2 0 0.4 0.1 0.6 0.1 1.2 0.3 2.4 0.6 3.7 0.9 0.3 0.1 0.5 0.1 0.8 0.2 1.3 0.3 2.6 0.6 3.9 1v3.5 3.1 143.2c-1.6-0.3-3.2-0.6-4.7-0.9 -0.5-0.1-1-0.2-1.5-0.3 -1-0.2-2-0.4-3-0.5 -0.6-0.1-1.1-0.2-1.7-0.3 -0.9-0.2-1.8-0.3-2.7-0.5 -0.6-0.1-1.1-0.2-1.7-0.3 -0.8-0.1-1.7-0.3-2.5-0.4 -0.6-0.1-1.1-0.2-1.6-0.3 -0.8-0.1-1.6-0.2-2.4-0.4 -0.5-0.1-1-0.1-1.5-0.2 -0.8-0.1-1.6-0.2-2.5-0.3 -0.4-0.1-0.9-0.1-1.3-0.2 -1-0.1-1.9-0.2-2.8-0.3 -0.3 0-0.5-0.1-0.8-0.1 -1.2-0.1-2.3-0.3-3.4-0.4 -0.3 0-0.6-0.1-0.8-0.1 -0.8-0.1-1.6-0.2-2.4-0.2 -0.4 0-0.8-0.1-1.1-0.1 -0.7-0.1-1.3-0.1-2-0.2 -0.4 0-0.8-0.1-1.2-0.1 -0.6 0-1.2-0.1-1.8-0.1 -0.4 0-0.8 0-1.1-0.1 -0.6 0-1.1-0.1-1.7-0.1 -0.4 0-0.7 0-1.1 0 -0.6 0-1.1 0-1.6 0 -0.3 0-0.6 0-0.9 0 -0.6 0-1.1 0-1.7 0 -0.2 0-0.5 0-0.7 0 -0.3 0-0.6 0-0.8 0 -0.6 0-1.2 0-1.7 0 -0.3 0-0.6 0-0.9 0 -0.5 0-1 0-1.4 0 -0.3 0-0.6 0-0.9 0 -0.4 0-0.9 0-1.3 0.1 -0.3 0-0.6 0-0.9 0.1 -0.4 0-0.8 0.1-1.2 0.1 -0.3 0-0.6 0.1-0.8 0.1 -0.4 0-0.8 0.1-1.1 0.1 -0.2 0-0.5 0.1-0.7 0.1 -0.4 0-0.7 0.1-1.1 0.2 -0.2 0-0.4 0.1-0.6 0.1 -0.4 0.1-0.8 0.1-1.2 0.2 -0.1 0-0.3 0-0.4 0.1 -0.5 0.1-1 0.2-1.4 0.3 -0.1 0-0.2 0-0.3 0.1 -0.4 0.1-0.7 0.2-1 0.2 -0.1 0-0.3 0.1-0.4 0.1 -0.3 0.1-0.5 0.1-0.8 0.2 -0.1 0-0.3 0.1-0.4 0.1 -0.2 0.1-0.4 0.1-0.6 0.2 -0.1 0-0.3 0.1-0.4 0.1 -0.2 0.1-0.4 0.1-0.6 0.2 -0.1 0-0.2 0.1-0.4 0.1 -0.2 0.1-0.3 0.1-0.5 0.2 -0.1 0-0.2 0.1-0.3 0.1 -0.2 0.1-0.3 0.1-0.5 0.2 -0.1 0-0.2 0.1-0.3 0.1 -0.2 0.1-0.3 0.2-0.4 0.2s-0.1 0.1-0.2 0.1c-0.2 0.1-0.4 0.2-0.5 0.3h-2c-0.2-0.1-0.3-0.2-0.5-0.3 -0.1 0-0.1-0.1-0.2-0.1 -0.1-0.1-0.3-0.2-0.4-0.2s-0.2-0.1-0.3-0.1c-0.1-0.1-0.3-0.1-0.4-0.2 -0.1-0.1-0.2-0.1-0.3-0.2 -0.2-0.1-0.3-0.1-0.5-0.2 -0.1-0.1-0.3-0.1-0.4-0.2 -0.2-0.1-0.4-0.1-0.5-0.2 -0.1-0.1-0.3-0.1-0.4-0.2 -0.2-0.1-0.4-0.1-0.6-0.2 -0.2 0-0.3-0.1-0.5-0.1 -0.2-0.1-0.5-0.1-0.7-0.2 -0.2 0-0.3-0.1-0.5-0.1 -0.3-0.1-0.6-0.1-0.9-0.2 -0.1 0-0.3-0.1-0.4-0.1 -0.5-0.1-0.9-0.2-1.4-0.3 -0.2 0-0.3-0.1-0.5-0.1 -0.4-0.1-0.7-0.1-1.1-0.2 -0.2 0-0.4-0.1-0.7-0.1 -0.3-0.1-0.7-0.1-1-0.1 -0.2 0-0.5-0.1-0.8-0.1 -0.4 0-0.7-0.1-1.1-0.1 -0.3 0-0.6-0.1-0.8-0.1 -0.4 0-0.8-0.1-1.2-0.1 -0.3 0-0.6 0-0.9-0.1 -0.4 0-0.8-0.1-1.3-0.1 -0.3 0-0.6 0-0.9 0 -0.5 0-1 0-1.4 0 -0.3 0-0.6 0-0.9 0 -0.6 0-1.2 0-1.7 0 -0.3 0-0.5 0-0.8 0 -0.2 0-0.5 0-0.7 0 -0.6 0-1.1 0-1.7 0 -0.3 0-0.6 0-0.9 0 -0.5 0-1.1 0-1.6 0 -0.4 0-0.7 0-1.1 0 -0.5 0-1.1 0-1.6 0.1 -0.4 0-0.8 0-1.2 0.1 -0.6 0-1.2 0.1-1.7 0.1 -0.4 0-0.8 0.1-1.2 0.1 -0.6 0-1.3 0.1-1.9 0.2 -0.4 0-0.8 0.1-1.2 0.1 -0.8 0.1-1.5 0.1-2.3 0.2 -0.3 0-0.6 0.1-0.9 0.1 -1.1 0.1-2.2 0.2-3.4 0.4 -0.3 0-0.6 0.1-0.8 0.1 -0.9 0.1-1.8 0.2-2.7 0.3 -0.4 0.1-0.9 0.1-1.4 0.2 -0.8 0.1-1.6 0.2-2.4 0.3 -0.5 0.1-1 0.1-1.5 0.2 -0.8 0.1-1.6 0.2-2.4 0.4 -0.5 0.1-1.1 0.2-1.7 0.3 -0.8 0.1-1.6 0.3-2.5 0.4 -0.6 0.1-1.2 0.2-1.7 0.3 -0.9 0.1-1.8 0.3-2.6 0.4 -0.6 0.1-1.1 0.2-1.7 0.3 -1 0.2-2 0.4-3 0.5 -0.5 0.1-1 0.2-1.5 0.3 -1.5 0.3-3.1 0.6-4.7 0.9V47.3H30.4zM22.7 57.1V49c1.4-0.3 2.9-0.7 4.2-1 0.1 0 0.3-0.1 0.4-0.1v142.5c0 0.9 0.4 1.7 1.1 2.3 0.5 0.4 1.2 0.7 1.9 0.7 0.2 0 0.4 0 0.6-0.1 21.1-4.1 38.6-6.2 51.9-6.2 14.4 0 20.3 2.4 22.5 3.9 0.5 0.3 1.1 0.5 1.7 0.5h2c0.6 0 1.2-0.2 1.7-0.5 2.2-1.5 8.1-3.9 22.5-3.9 13.3 0 30.8 2.1 51.9 6.2 0.2 0 0.4 0.1 0.6 0.1 0.7 0 1.4-0.2 1.9-0.7 0.7-0.6 1.1-1.4 1.1-2.3V47.9c0.1 0 0.3 0.1 0.4 0.1 1.4 0.3 2.8 0.6 4.2 1v8.1 141.6c-26.4-4.7-44.8-6.3-57.6-6.3 -16.6 0-23.7 2.6-26.7 4.5h-2c-3-1.9-10.1-4.5-26.7-4.5 -12.8 0-31.2 1.6-57.6 6.3L22.7 57.1 22.7 57.1zM200.8 206.9c-28.7-4.7-48.7-6.2-62.6-6.2 -18.3 0-26.1 2.7-29.2 4.6h-2c-3.1-1.8-10.8-4.6-29.2-4.6 -13.9 0-33.9 1.6-62.6 6.2V58.7c1.5-0.3 3-0.6 4.5-0.9v140.9c0 0.9 0.4 1.7 1.1 2.3 0.5 0.5 1.2 0.7 1.9 0.7 0.2 0 0.4 0 0.5 0 23.2-4.1 42.4-6.2 57.1-6.2 16.2 0 22.7 2.5 25.1 4 0.5 0.3 1 0.5 1.6 0.5h2c0.6 0 1.1-0.2 1.6-0.5 2.4-1.5 8.9-4 25.1-4 14.7 0 33.9 2.1 57.1 6.2 0.2 0 0.4 0 0.5 0 0.7 0 1.4-0.2 1.9-0.7 0.7-0.6 1.1-1.4 1.1-2.3V57.8c1.5 0.3 2.9 0.6 4.5 0.9L200.8 206.9 200.8 206.9z"/></svg>
