<svg xmlns="http://www.w3.org/2000/svg" id="illustrationIcon" class="rightNavSVG" viewBox="0 0 216 216"><style type="text/css">  
	.st0{fill:none;}
	.st1{fill:#00A4B3;}
</style><rect id="illustrationemptyContainer" class="st0" width="216" height="216"/><polygon class="st0" points="193 205.5 21 205.5 39 31.5 142 31.5 "/><g id="illustrationBrush"><g><path class="st1" d="M206.2 42.6c4.4 4.4-9.3 25.3-28.6 50.6s-36.7 45.6-41.2 41c-4.5-4.5 9.3-25.3 28.6-50.6S201.8 38.2 206.2 42.6z"/></g><g><path class="st1" d="M138 138.3c-1.6 0-3-0.6-4.1-1.6 -1-1-1.6-2.2-1.8-3.9 -2.2-0.3-4.7 0.1-7.1 0.8 -5 1.5-6.8 5-8.5 10.3 -1.6 2.5-1.7 7.6-11.9 11.9 14.4 3.6 24.1 0.5 29.2-3.7 4-3.3 6.2-9.8 5-13.9C138.4 138.2 138.2 138.3 138 138.3z"/></g></g><path class="st1" d="M100.2 159.2c-19.9-6.6-33.6-25.3-30.7-41.7 1-5.3 3.5-9.6 7.2-12.9C83.1 103 88 99 89.9 92.9c3.4-11.3-5.1-25.1-19.1-31 -9.3-3.9-18.7-3.2-24.9 1 5.1-0.8 10.8-0.2 16.6 2.2 14 5.8 22.6 19.7 19.1 31 -1 3.3-3 6-5.6 8.1 -10 2.4-17.5 9.2-19.3 19.1 -3 16.4 10.7 35.1 30.7 41.7 13 4.3 25.5 2.4 33.4-4C114.6 162.1 107.5 161.6 100.2 159.2z"/><g id="illustrationPencil"><path class="st1" d="M112.4 120.3c-2.7 0.3-5.5-1-7.2-2.2s-3.8-3.4-4.4-6.1c-1.9 7-2.7 10.9-2.7 10.9s-0.3 2.6 1.1 3.6c1.3 1 3.7-0.1 3.7-0.1S106.4 124.3 112.4 120.3z"/><path class="st1" d="M100.4 128.6c0 0-1.6 0.4-2.5-0.3s-1-2.3-1-2.3 -1.9 4.4-0.9 5.1C96.8 131.8 100.4 128.6 100.4 128.6z"/><path class="st1" d="M175 21.2c2 1.4 3.9 3 5.6 4.4l7.5-10.4c0.9-1.2-0.2-4.2-3.9-6.8s-6.8-2.7-7.7-1.5L169 17.3C170.9 18.4 173 19.7 175 21.2z"/><path class="st1" d="M173.4 23.4c-2-1.4-4.1-2.7-6-3.9l-64.9 90.2c-0.9 1.2 0.7 3.9 4.2 6.4s6.5 3.2 7.4 1.9L179 27.8C177.3 26.4 175.3 24.8 173.4 23.4z"/></g><g><path class="st1" d="M201.8 208.3l-30.5-102 -5.1 7 26.8 92.1H21l18-174h103l4 12.9 5-5.9 -3.2-10.1c-0.5-1.7-2.1-2.9-3.8-2.9H36c-2.1 0-3.8 1.6-4 3.6L14 209c-0.1 1.1 0.3 2.2 1 3.1 0.8 0.8 1.8 1.3 3 1.3h180c1.3 0 2.5-0.6 3.2-1.6C202 210.8 202.2 209.5 201.8 208.3z"/><polygon class="st1" points="158.2 86 163.3 80.1 158 62.4 153.2 68.7 "/></g></svg>
